<?xml version="1.0" encoding="UTF-8"?>
<svg version="1.1" xmlns="http://www.w3.org/2000/svg" width="500" height="500">
<path d="M0 0 C165 0 330 0 500 0 C500 165 500 330 500 500 C335 500 170 500 0 500 C0 335 0 170 0 0 Z " fill="#FEFEFE" transform="translate(0,0)"/>
<path d="M0 0 C1.65 0 3.3 0 5 0 C5.25056152 0.49177734 5.50112305 0.98355469 5.75927734 1.49023438 C14.23251333 18.04474713 23.34946507 33.48892722 35 48 C35.65871094 48.86367187 36.31742188 49.72734375 36.99609375 50.6171875 C47.30990529 63.84620893 59.74814078 75.75394329 73 86 C73.89332031 86.87914062 74.78664063 87.75828125 75.70703125 88.6640625 C79.57701333 91.88904756 83.5650034 91.84694717 88.4375 92.0625 C96.46493952 92.62253733 104.32142293 93.55337061 112.25 94.9375 C113.18900146 95.09549072 114.12800293 95.25348145 115.09545898 95.41625977 C117.74509628 95.88757468 120.36823178 96.43858998 123 97 C123.78826172 97.11230957 124.57652344 97.22461914 125.38867188 97.34033203 C129.47426611 98.19222561 131.44157278 99.28018537 134.03588867 102.62426758 C135.77145535 105.4504944 137.40367895 108.29771001 138.99139404 111.20739746 C140.61004307 114.08423388 142.43413607 116.81769809 144.25390625 119.5703125 C144.96353516 120.65183594 145.67316406 121.73335938 146.40429688 122.84765625 C147.47260742 124.46994141 147.47260742 124.46994141 148.5625 126.125 C152.65400551 132.34880227 156.74128611 138.57111861 160.71484375 144.87109375 C164.05116706 150.13972618 167.66960587 155.136654 171.375 160.15234375 C173 163 173 163 172.8125 165.31640625 C172 167 172 167 171 168 C162.52874879 168.72138741 153.92327882 167.42297462 145.5 166.5625 C125.77382844 164.5569741 106.22288221 163.79079851 86.38769531 163.75976562 C82.63844822 163.7500349 78.88974499 163.71888981 75.140625 163.6875 C56.71033102 163.60528641 39.41582254 165.09377742 21.625 170.0625 C20.66851562 170.31837891 19.71203125 170.57425781 18.7265625 170.83789062 C14.99995762 171.84459153 11.34461964 172.87598605 7.7109375 174.18359375 C0.67703461 176.30187286 -5.10110254 173.88899707 -11.8125 171.6875 C-37.26789798 163.70364369 -63.42824133 162.40671355 -90 163 C-90.85980469 163.01401855 -91.71960938 163.02803711 -92.60546875 163.04248047 C-109.69328958 163.35592953 -126.68370286 165.03757977 -143.68994141 166.62792969 C-144.65319336 166.71733322 -145.61644531 166.80673676 -146.60888672 166.89884949 C-148.43025975 167.0685134 -150.25140373 167.24066133 -152.07226562 167.41572571 C-163.95162402 168.52418799 -163.95162402 168.52418799 -167 167 C-167.65990478 162.61455683 -166.15603337 160.31526428 -163.59765625 156.83837891 C-163.09105469 156.16983887 -162.58445312 155.50129883 -162.0625 154.8125 C-156.6392132 147.39681668 -151.51562809 139.82202336 -146.5 132.125 C-145.76649769 131.00674392 -145.0328553 129.88857971 -144.29907227 128.77050781 C-140.94972401 123.64173601 -137.666032 118.49653429 -134.5625 113.21484375 C-134.03978516 112.33876465 -133.51707031 111.46268555 -132.97851562 110.56005859 C-132.02701503 108.95275161 -131.09670076 107.33261276 -130.19335938 105.69775391 C-127.29424543 100.82667057 -124.83544007 98.94235415 -119.33398438 97.51391602 C-118.56376953 97.34432373 -117.79355469 97.17473145 -117 97 C-115.96069336 96.72337524 -115.96069336 96.72337524 -114.90039062 96.44116211 C-112.77603551 95.88460326 -110.64640428 95.40151735 -108.5 94.9375 C-107.70174805 94.75888428 -106.90349609 94.58026855 -106.08105469 94.39624023 C-101.26764739 93.40360095 -96.65016669 92.87957982 -91.734375 92.7578125 C-78.34536737 92.40007164 -70.39316512 91.18896698 -60.97265625 81.26953125 C-60.46234863 80.70314941 -59.95204102 80.13676758 -59.42626953 79.55322266 C-57.55665297 77.51719038 -55.4993813 75.76444929 -53.375 74 C-30.80177696 54.50012658 -11.62513284 27.38613025 0 0 Z " fill="#272725" transform="translate(247,150)"/>
<path d="M0 0 C1.19044922 -0.00386719 2.38089844 -0.00773438 3.60742188 -0.01171875 C14.84556661 0.00050327 25.91320613 0.5341152 36.9375 2.8125 C38.19602783 3.06978882 38.19602783 3.06978882 39.47998047 3.33227539 C51.4126759 5.88132027 63.77928944 8.98964972 74.3046875 15.33984375 C77.97488411 16.77507628 80.76891442 15.35221302 84.265625 13.890625 C85.35359375 13.39046875 86.4415625 12.8903125 87.5625 12.375 C116.387116 -0.30095439 149.14598393 -3.15749822 180.10986328 1.80517578 C182.56717265 2.16197863 185.02411278 2.38802515 187.49609375 2.62109375 C201.08018447 4.20327152 201.08018447 4.20327152 205.4453125 9.16015625 C207.69952938 12.26439987 209.47954254 15.5770604 211.20166016 18.99902344 C212.73119571 21.92631917 214.50748279 24.66687176 216.296875 27.44042969 C220.22292335 33.52869144 223.89121066 39.73859323 227.3125 46.125 C226.54373535 46.00455322 225.7749707 45.88410645 224.98291016 45.76000977 C216.56118911 44.4511008 208.12976103 43.23108666 199.6875 42.0625 C198.45515625 41.88912109 197.2228125 41.71574219 195.953125 41.53710938 C157.24974786 36.17533579 120.15398689 37.31091464 85.0078125 55.8046875 C82.3125 57.125 82.3125 57.125 80.3125 57.125 C80.3125 55.145 80.3125 53.165 80.3125 51.125 C78.9925 51.125 77.6725 51.125 76.3125 51.125 C76.3125 53.435 76.3125 55.745 76.3125 58.125 C75.81548584 57.87854736 75.31847168 57.63209473 74.80639648 57.37817383 C49.43670236 44.87568512 24.51541598 38.6886338 -3.75 38.75 C-4.5695517 38.74954681 -5.38910339 38.74909363 -6.23348999 38.74862671 C-22.32102409 38.77450624 -37.81794183 40.42038269 -53.6875 43.125 C-55.13406982 43.36452393 -55.13406982 43.36452393 -56.60986328 43.60888672 C-61.31423592 44.39054416 -66.00553501 45.21881323 -70.6875 46.125 C-69.06018176 41.36324491 -66.44929951 37.47181373 -63.6875 33.3125 C-60.69313357 28.76778123 -57.72002819 24.22278152 -54.9140625 19.55859375 C-54.47578125 18.83454346 -54.0375 18.11049316 -53.5859375 17.36450195 C-52.75638171 15.98705128 -51.93558746 14.60427381 -51.125 13.21557617 C-48.23048313 8.43876188 -45.90483848 5.9581613 -40.453125 4.54638672 C-37.76881924 3.96672785 -35.0802534 3.47195628 -32.375 3 C-31.00698242 2.74669922 -31.00698242 2.74669922 -29.61132812 2.48828125 C-19.61161231 0.66754446 -10.16662296 -0.03249853 0 0 Z " fill="#FAFAFA" transform="translate(171.6875,247.875)"/>
<path d="M0 0 C2.475 0.495 2.475 0.495 5 1 C4.42227489 5.18246439 3.01627057 7.9776174 0.76171875 11.52734375 C-0.22151367 13.08678711 -0.22151367 13.08678711 -1.22460938 14.67773438 C-1.91361328 15.75345703 -2.60261719 16.82917969 -3.3125 17.9375 C-3.98990234 19.00935547 -4.66730469 20.08121094 -5.36523438 21.18554688 C-8.51841258 26.16343817 -11.69812905 31.11934243 -15 36 C-14.36320312 35.82984375 -13.72640625 35.6596875 -13.0703125 35.484375 C-0.88453255 32.44601077 11.573497 30.74251967 24 29 C25.27166016 28.82130371 26.54332031 28.64260742 27.85351562 28.45849609 C32.02662951 27.94596342 36.15425228 27.82240835 40.35546875 27.796875 C41.1311319 27.78986069 41.90679504 27.78284637 42.70596313 27.77561951 C45.19986835 27.75819409 47.69353612 27.75176611 50.1875 27.75 C51.03903656 27.74932526 51.89057312 27.74865051 52.76791382 27.74795532 C80.24789186 27.78257179 107.33130517 31.9974021 131 47 C131.33 45.02 131.66 43.04 132 41 C133.32 41 134.64 41 136 41 C136 42.98 136 44.96 136 47 C136.598125 47.144375 137.19625 47.28875 137.8125 47.4375 C142.69230769 48.69230769 142.69230769 48.69230769 144 50 C144.08507812 49.38125 144.17015625 48.7625 144.2578125 48.125 C145 46 145 46 146.6796875 44.875 C147.40414062 44.58625 148.12859375 44.2975 148.875 44 C150.09316406 43.50814209 150.09316406 43.50814209 151.3359375 43.00634766 C152.21507812 42.67425293 153.09421875 42.3421582 154 42 C154.89976562 41.65114746 155.79953125 41.30229492 156.7265625 40.94287109 C165.00025978 37.82712488 173.31231862 35.62157167 182 34 C182.84675293 33.82484863 183.69350586 33.64969727 184.56591797 33.46923828 C193.41200598 31.77845147 202.15573805 31.60403072 211.125 31.625 C211.92325195 31.62487915 212.72150391 31.6247583 213.54394531 31.62463379 C229.63534449 31.65891491 245.38306339 33.11879045 261.29101562 35.46191406 C264.71592077 35.95878682 268.14271539 36.3882421 271.578125 36.8046875 C284.49141923 38.56174404 284.49141923 38.56174404 288.59765625 42.4765625 C290.14535389 44.97967257 291.20754818 47.17520576 292 50 C290.68 50.66 289.36 51.32 288 52 C288.99 52 289.98 52 291 52 C291.66 52 292.32 52 293 52 C293.33 50.68 293.66 49.36 294 48 C295.32 48 296.64 48 298 48 C298 48.66 298 49.32 298 50 C298.99 50 299.98 50 301 50 C302.96058623 52.52075373 304.11027111 54.00756003 303.75 57.25 C303 59 303 59 302 60 C293.52874879 60.72138741 284.92327882 59.42297462 276.5 58.5625 C256.77382844 56.5569741 237.22288221 55.79079851 217.38769531 55.75976562 C213.63844822 55.7500349 209.88974499 55.71888981 206.140625 55.6875 C187.71033102 55.60528641 170.41582254 57.09377742 152.625 62.0625 C151.66851562 62.31837891 150.71203125 62.57425781 149.7265625 62.83789062 C145.99995762 63.84459153 142.34461964 64.87598605 138.7109375 66.18359375 C131.67703461 68.30187286 125.89889746 65.88899707 119.1875 63.6875 C93.73210202 55.70364369 67.57175867 54.40671355 41 55 C40.14019531 55.01401855 39.28039062 55.02803711 38.39453125 55.04248047 C21.30671042 55.35592953 4.31629714 57.03757977 -12.68994141 58.62792969 C-14.13481934 58.76203499 -14.13481934 58.76203499 -15.60888672 58.89884949 C-17.43025975 59.0685134 -19.25140373 59.24066133 -21.07226562 59.41572571 C-32.95162402 60.52418799 -32.95162402 60.52418799 -36 59 C-36.66004247 54.61364185 -35.15496335 52.31406283 -32.59643555 48.83642578 C-32.09023682 48.16853027 -31.58403809 47.50063477 -31.0625 46.8125 C-25.51900495 39.24135358 -20.30108236 31.4892224 -15.1875 23.625 C-14.48310791 22.54452393 -13.77871582 21.46404785 -13.05297852 20.35083008 C-8.6589591 13.5944235 -4.31363832 6.8079766 0 0 Z " fill="#21211E" transform="translate(116,258)"/>
<path d="M0 0 C2.239326 2.239326 2.43520825 3.13879304 3.078125 6.15625 C3.26584473 7.00445312 3.45356445 7.85265625 3.64697266 8.7265625 C3.84597168 9.64179688 4.0449707 10.55703125 4.25 11.5 C8.46454123 29.7640488 14.01069857 49.04528583 25.65551758 64.14697266 C27 66 27 66 27 68 C27.81210937 67.75443359 27.81210937 67.75443359 28.640625 67.50390625 C31.40222593 66.91409413 33.92818139 66.90390692 36.75 66.9375 C37.73484375 66.94652344 38.7196875 66.95554687 39.734375 66.96484375 C40.48203125 66.97644531 41.2296875 66.98804688 42 67 C40.30828883 70.38342234 36.41777941 70.85959105 33 72 C29.40453165 73.15358927 25.796428 74.26436992 22.1875 75.375 C15.17602404 77.5513361 8.51921421 79.79709544 2.0234375 83.25 C-2.3536857 84.8724086 -6.37142634 81.99689542 -10.375 80.1875 C-16.48795491 77.48110008 -22.56289513 75.54880997 -29.0390625 73.859375 C-31.57799353 73.12248209 -33.69921095 72.27946318 -36 71 C-35.67 70.01 -35.34 69.02 -35 68 C-33.35 68 -31.7 68 -30 68 C-29.75636719 67.31421875 -29.51273438 66.6284375 -29.26171875 65.921875 C-28.0561598 63.13005427 -26.60816377 60.65618651 -24.97973633 58.09326172 C-16.85553426 45.26378554 -12.12437888 31.96211065 -8.21166992 17.35229492 C-6.42486459 10.90520217 -4.08331593 5.37202202 0 0 Z " fill="#1C1C19" transform="translate(251,181)"/>
<path d="M0 0 C3.11760095 3.89183959 5.56480384 8.17168962 8.125 12.4375 C20.69968274 33.13583356 35.62142769 54.43590231 54.671875 69.73046875 C55.11015625 70.14941406 55.5484375 70.56835938 56 71 C56 71.66 56 72.32 56 73 C56.56203125 73.25652344 57.1240625 73.51304687 57.703125 73.77734375 C60.28039262 75.14925662 62.45167276 76.76364584 64.75 78.5625 C65.54921875 79.18253906 66.3484375 79.80257812 67.171875 80.44140625 C67.77515625 80.95574219 68.3784375 81.47007812 69 82 C69 82.33 69 82.66 69 83 C55.15523337 85.0215058 55.15523337 85.0215058 50.07421875 82.61328125 C47.88118976 80.85517229 45.95123632 79.0191054 44 77 C42.68 76.01 41.36 75.02 40 74 C44.95 78.95 44.95 78.95 50 84 C46.19406114 85.90296943 43.13465934 86.75777272 39 87.625 C37.1746875 88.01558594 37.1746875 88.01558594 35.3125 88.4140625 C32 89 32 89 28 89 C24.73225159 85.1024928 22.41783764 80.46402699 20 76 C19.63181152 75.33033203 19.26362305 74.66066406 18.88427734 73.97070312 C7.13962071 52.20809448 -1.1504644 24.88411888 0 0 Z " fill="#FBFBFB" transform="translate(250,160)"/>
<path d="M0 0 C0.33 0 0.66 0 1 0 C2.8987318 31.3818173 -10.34100721 62.12539417 -27 88 C-34.23589973 87.39700836 -40.99370876 85.8849413 -48 84 C-47.62488281 83.57589844 -47.24976563 83.15179688 -46.86328125 82.71484375 C-43.30335421 78.63482662 -40.08682003 74.4486524 -37 70 C-38.01320312 71.03060547 -38.01320312 71.03060547 -39.046875 72.08203125 C-39.93890625 72.98308594 -40.8309375 73.88414062 -41.75 74.8125 C-42.63171875 75.70582031 -43.5134375 76.59914063 -44.421875 77.51953125 C-49.94840244 82.83672053 -49.94840244 82.83672053 -53.11328125 83.328125 C-53.83902344 83.30234375 -54.56476563 83.2765625 -55.3125 83.25 C-56.09109375 83.22421875 -56.8696875 83.1984375 -57.671875 83.171875 C-60.82124833 82.93937093 -63.8868022 82.52990601 -67 82 C-63.95684837 78.91217825 -60.85947932 75.92329588 -57.64990234 73.00634766 C-45.87493281 62.29623233 -34.7723174 51.41402006 -25.23193359 38.63769531 C-24.07833333 37.10413397 -22.89370881 35.59404901 -21.70703125 34.0859375 C-13.41030312 23.42500896 -6.65072003 11.73565283 0 0 Z " fill="#FAFAFA" transform="translate(248,161)"/>
<path d="M0 0 C3.42490514 0.49687276 6.85169977 0.92632804 10.28710938 1.34277344 C23.17367249 3.09512364 23.17367249 3.09512364 27.30664062 6.97949219 C30.70898438 12.42789232 30.70898438 12.42789232 30.70898438 15.53808594 C23.12634756 15.72421256 15.79672649 14.9939747 8.27148438 14.10058594 C5.93950945 13.83056779 3.60747899 13.56102883 1.27539062 13.29199219 C0.25388916 13.17154541 -0.7676123 13.05109863 -1.82006836 12.92700195 C-2.96548096 12.79865967 -4.11089355 12.67031738 -5.29101562 12.53808594 C-6.00177246 12.45189499 -6.7125293 12.36570404 -7.44482422 12.27690125 C-14.62589589 11.46612773 -21.76426668 11.34320344 -28.98632812 11.29980469 C-30.94395584 11.28769707 -30.94395584 11.28769707 -32.94113159 11.27534485 C-35.69952248 11.26041066 -38.45788865 11.25053415 -41.21630859 11.24291992 C-43.99127721 11.23414245 -46.76573154 11.21344885 -49.54052734 11.18139648 C-68.1285073 10.97149451 -85.77084294 12.22289187 -103.9956665 16.11581421 C-104.86930847 16.29858917 -105.74295044 16.48136414 -106.64306641 16.66967773 C-107.80432541 16.91961739 -107.80432541 16.91961739 -108.98904419 17.17460632 C-111.45731248 17.56434409 -113.79622535 17.59936941 -116.29101562 17.53808594 C-116.62101562 15.55808594 -116.95101563 13.57808594 -117.29101562 11.53808594 C-81.88823795 -8.56499887 -38.82374973 -5.71845097 0 0 Z " fill="#F8F8F8" transform="translate(377.291015625,293.4619140625)"/>
<path d="M0 0 C2.25507469 -0.00218798 4.50965945 -0.02043336 6.76464844 -0.03930664 C19.34583215 -0.08924389 31.69471913 0.84402194 43.82714844 4.43530273 C44.93630615 4.75301636 44.93630615 4.75301636 46.06787109 5.07714844 C55.1412483 7.74470975 64.51503998 10.74549775 72.88964844 15.18530273 C72.22964844 17.16530273 71.56964844 19.14530273 70.88964844 21.18530273 C63.26272725 20.53520206 55.75222714 19.43235344 48.20214844 18.18530273 C46.03165939 17.83062246 43.86108859 17.476442 41.69042969 17.12280273 C40.74337158 16.96682617 39.79631348 16.81084961 38.82055664 16.65014648 C37.85335693 16.49674805 36.88615723 16.34334961 35.88964844 16.18530273 C34.88200439 16.00588135 33.87436035 15.82645996 32.83618164 15.64160156 C27.20530018 14.99055811 21.60870309 14.98256858 15.94433594 14.94702148 C14.67666885 14.93749954 13.40900177 14.9279776 12.10292053 14.91816711 C7.9901763 14.89134406 3.87746542 14.88101749 -0.23535156 14.87280273 C-0.93107647 14.87076843 -1.62680138 14.86873413 -2.34360886 14.86663818 C-24.126044 14.80682022 -45.55264647 15.61620617 -67.13012695 18.81811523 C-69.8305716 19.15083161 -72.3938815 19.25604908 -75.11035156 19.18530273 C-73.63652851 15.00947075 -71.96659822 11.59030859 -69.11035156 8.18530273 C-66.21766171 6.92596228 -63.27924827 6.4744014 -60.17285156 5.99780273 C-59.2962085 5.84400146 -58.41956543 5.6902002 -57.51635742 5.53173828 C-54.71843484 5.05204473 -51.91645738 4.61433544 -49.11035156 4.18530273 C-47.73363281 3.96680664 -47.73363281 3.96680664 -46.32910156 3.74389648 C-30.88228057 1.3083892 -15.63778585 -0.00169021 0 0 Z " fill="#F8F8F8" transform="translate(167.1103515625,289.814697265625)"/>
<path d="M0 0 C0.33 -1.98 0.66 -3.96 1 -6 C2.32 -6 3.64 -6 5 -6 C5.33 -3.69 5.66 -1.38 6 1 C0.25 4 0.25 4 -2 4 C-2.28875 3.360625 -2.5775 2.72125 -2.875 2.0625 C-3.82823451 -0.15206079 -3.82823451 -0.15206079 -6 -1 C-6.33 -0.34 -6.66 0.32 -7 1 C-8.07636719 0.54109375 -9.15273437 0.0821875 -10.26171875 -0.390625 C-28.63526512 -8.14688787 -47.71786993 -14.19208386 -67.8828125 -14.1328125 C-68.61893768 -14.13376923 -69.35506287 -14.13472595 -70.11349487 -14.13571167 C-71.66485683 -14.13638848 -73.2162217 -14.13456919 -74.76757812 -14.13037109 C-77.09772396 -14.12506215 -79.42767294 -14.13030914 -81.7578125 -14.13671875 C-94.89795986 -14.14468523 -107.64968845 -13.23853417 -120.625 -11.0625 C-121.6665625 -10.89298828 -122.708125 -10.72347656 -123.78125 -10.54882812 C-129.71947003 -9.57516736 -135.63547882 -8.52353326 -141.54052734 -7.36499023 C-144.06349459 -6.99057729 -146.45330188 -6.93654596 -149 -7 C-143.74829932 -12.25170068 -143.74829932 -12.25170068 -139.546875 -12.96484375 C-138.630271 -13.1237207 -137.71366699 -13.28259766 -136.76928711 -13.44628906 C-135.77292236 -13.60838867 -134.77655762 -13.77048828 -133.75 -13.9375 C-132.70787354 -14.10862305 -131.66574707 -14.27974609 -130.59204102 -14.45605469 C-128.42873709 -14.80741777 -126.26474123 -15.15454534 -124.10009766 -15.49755859 C-121.36532425 -15.94079089 -118.64271648 -16.42549437 -115.91796875 -16.92578125 C-77.93547451 -23.4695677 -33.31420128 -21.11648191 0 0 Z " fill="#323230" transform="translate(247,305)"/>
<path d="M0 0 C0 0.33 0 0.66 0 1 C-15.84 1.495 -15.84 1.495 -32 2 C-21.11 2.495 -21.11 2.495 -10 3 C-10 3.33 -10 3.66 -10 4 C-10.65145996 4.00410889 -11.30291992 4.00821777 -11.97412109 4.01245117 C-37.34121666 4.28899809 -62.04711624 7.52355812 -85 19 C-85 20.65 -85 22.3 -85 24 C-85.66 23.67 -86.32 23.34 -87 23 C-87 22.34 -87 21.68 -87 21 C-87.99 21.33 -88.98 21.66 -90 22 C-90.66 20.68 -91.32 19.36 -92 18 C-81.30538197 12.32882974 -70.64656694 7.37913046 -59 4 C-58.27941406 3.78827148 -57.55882812 3.57654297 -56.81640625 3.35839844 C-38.39707153 -1.74819216 -18.92433251 -0.38074181 0 0 Z " fill="#2D2D2B" transform="translate(346,286)"/>
<path d="M0 0 C1.91145361 0.01005687 3.82291238 0.0191779 5.734375 0.02734375 C10.36471349 0.0491267 14.99479794 0.08350501 19.625 0.125 C19.625 0.785 19.625 1.445 19.625 2.125 C18.43648438 2.17398437 17.24796875 2.22296875 16.0234375 2.2734375 C-8.26250201 3.33797904 -32.02769797 6.08704834 -55.89575195 10.7578125 C-58.42595429 11.13254655 -60.82113605 11.18898228 -63.375 11.125 C-58.1242163 5.8742163 -58.1242163 5.8742163 -53.640625 5.125 C-52.67253906 4.96 -51.70445313 4.795 -50.70703125 4.625 C-49.68996094 4.46 -48.67289063 4.295 -47.625 4.125 C-46.65433594 3.96 -45.68367188 3.795 -44.68359375 3.625 C-42.64775224 3.28346958 -40.61002048 2.95306821 -38.57080078 2.63232422 C-36.45617853 2.29663399 -34.34488616 1.93917869 -32.23779297 1.55908203 C-21.49294203 -0.23995945 -10.86416157 -0.10034865 0 0 Z " fill="#31302F" transform="translate(161.375,286.875)"/>
<path d="M0 0 C0.98597168 0.12600586 1.97194336 0.25201172 2.98779297 0.38183594 C9.91455449 1.35970299 9.91455449 1.35970299 13.3125 3.625 C8.94933716 3.69425655 4.86336408 3.69662939 0.52734375 3.1328125 C-6.67881375 2.29620391 -13.94301892 2.42782166 -21.1875 2.4375 C-21.94861084 2.43777191 -22.70972168 2.43804382 -23.49389648 2.43832397 C-34.36639245 2.4562271 -44.94814088 2.79631656 -55.6875 4.625 C-57.35530661 4.89293829 -59.02328589 5.15980329 -60.69140625 5.42578125 C-65.02935139 6.12680048 -69.35939933 6.86568409 -73.6875 7.625 C-73.6875 6.965 -73.6875 6.305 -73.6875 5.625 C-49.01317239 -0.68134179 -25.44905937 -3.27414799 0 0 Z " fill="#2C2C2B" transform="translate(353.6875,272.375)"/>
<path d="M0 0 C0 0.66 0 1.32 0 2 C-0.74572266 1.88406494 -1.49144531 1.76812988 -2.25976562 1.64868164 C-5.6729901 1.11874199 -9.08649152 0.59060704 -12.5 0.0625 C-13.67304688 -0.11990234 -14.84609375 -0.30230469 -16.0546875 -0.49023438 C-17.20195312 -0.66748047 -18.34921875 -0.84472656 -19.53125 -1.02734375 C-20.57861328 -1.18968506 -21.62597656 -1.35202637 -22.70507812 -1.51928711 C-29.09484786 -2.45152308 -35.18262443 -3.12710137 -41.6484375 -3.1328125 C-42.34587067 -3.13376923 -43.04330383 -3.13472595 -43.76187134 -3.13571167 C-45.22568859 -3.13638683 -46.68950895 -3.13457931 -48.15332031 -3.13037109 C-50.36270057 -3.12502973 -52.57187607 -3.13033044 -54.78125 -3.13671875 C-61.56254452 -3.13962934 -68.25745017 -3.01958561 -75.00146484 -2.22265625 C-77.54989322 -1.93873655 -80.06264177 -1.90089488 -82.625 -1.9375 C-83.88183594 -1.95103516 -83.88183594 -1.95103516 -85.1640625 -1.96484375 C-85.76992187 -1.97644531 -86.37578125 -1.98804688 -87 -2 C-64.68766993 -15.79525784 -23.16231365 -6.16466692 0 0 Z " fill="#30302F" transform="translate(220,278)"/>
<path d="M0 0 C0 0.66 0 1.32 0 2 C-0.59425781 1.88406494 -1.18851562 1.76812988 -1.80078125 1.64868164 C-4.53332766 1.11720561 -7.2666503 0.58982848 -10 0.0625 C-10.93457031 -0.11990234 -11.86914062 -0.30230469 -12.83203125 -0.49023438 C-13.75371094 -0.66748047 -14.67539063 -0.84472656 -15.625 -1.02734375 C-16.46289062 -1.18968506 -17.30078125 -1.35202637 -18.1640625 -1.51928711 C-25.01278522 -2.68019749 -31.57782411 -3.14958916 -38.51171875 -3.1328125 C-39.4018013 -3.13376923 -40.29188385 -3.13472595 -41.2089386 -3.13571167 C-43.0838732 -3.13638866 -44.95881021 -3.1345681 -46.83374023 -3.13037109 C-49.66200201 -3.12504799 -52.49010268 -3.13031608 -55.31835938 -3.13671875 C-64.93011035 -3.13989105 -74.42954272 -2.97946864 -84 -2 C-83.67 -2.66 -83.34 -3.32 -83 -4 C-58.79577505 -9.50785077 -23.01998971 -11.50999485 0 0 Z " fill="#3D3D3C" transform="translate(221,266)"/>
<path d="M0 0 C-0.70858154 -0.07001221 -1.41716309 -0.14002441 -2.1472168 -0.2121582 C-11.50256586 -1.04157733 -20.8045347 -1.18618028 -30.19165039 -1.18530273 C-32.79785551 -1.18748772 -35.40363493 -1.20571192 -38.00976562 -1.22460938 C-51.2323973 -1.26881678 -64.08177632 -0.40495296 -76.984375 2.73046875 C-79.26444875 3.03536233 -80.80201724 2.60619196 -83 2 C-62.77827947 -6.30280055 -19.36575262 -12.91050175 0 0 Z " fill="#3B3B3B" transform="translate(363,264)"/>
<path d="M0 0 C6.01397009 -0.07432654 12.02767096 -0.12868588 18.04199219 -0.16479492 C20.08663594 -0.17985288 22.13124755 -0.20030357 24.17578125 -0.22631836 C27.11987252 -0.26283311 30.06353557 -0.27975651 33.0078125 -0.29296875 C33.9174173 -0.30845261 34.82702209 -0.32393646 35.76419067 -0.33988953 C40.96231958 -0.34125843 44.45849625 0.16727788 49 3 C49 3.33 49 3.66 49 4 C46.56241991 4.027526 44.12516459 4.04708568 41.6875 4.0625 C41.01654297 4.07087891 40.34558594 4.07925781 39.65429688 4.08789062 C34.69593956 4.1111693 29.84379857 3.73948665 24.91088867 3.25610352 C19.88632571 2.81403637 14.85162796 2.63466921 9.8125 2.4375 C8.24145508 2.37272461 8.24145508 2.37272461 6.63867188 2.30664062 C4.09253603 2.20200491 1.54632822 2.09982454 -1 2 C-0.67 1.34 -0.34 0.68 0 0 Z " fill="#1D1D1B" transform="translate(314,287)"/>
<path d="M0 0 C0.66 0.185625 1.32 0.37125 2 0.5625 C4.71677271 0.95869602 6.51561629 0.88447871 9.1875 0.5 C13 0 13 0 15 1 C15 1.66 15 2.32 15 3 C16.65 3 18.3 3 20 3 C19.01 4.98 18.02 6.96 17 9 C9.76410027 8.39700836 3.00629124 6.8849413 -4 5 C-2.68 3.35 -1.36 1.7 0 0 Z " fill="#EAE6E1" transform="translate(204,240)"/>
<path d="M0 0 C11.15963203 0.52794344 21.99844472 2.13513082 33 4 C33 4.33 33 4.66 33 5 C31.35 5.33 29.7 5.66 28 6 C32.455 6.99 32.455 6.99 37 8 C33.03300297 8.99174926 31.20530307 8.90923465 27.2734375 8.2578125 C25.60087891 7.98904297 25.60087891 7.98904297 23.89453125 7.71484375 C22.73308594 7.52019531 21.57164062 7.32554687 20.375 7.125 C12.59407974 5.84727244 4.86055738 4.65933023 -3 4 C-3 3.67 -3 3.34 -3 3 C-1.02 2.67 0.96 2.34 3 2 C2.01 1.34 1.02 0.68 0 0 Z " fill="#363634" transform="translate(359,288)"/>
<path d="M0 0 C0.42410156 0.37511719 0.84820312 0.75023437 1.28515625 1.13671875 C2.52332856 2.21705811 3.77588038 3.28104375 5.0390625 4.33203125 C7 6 7 6 8.4609375 7.51171875 C13.68720549 12.33702968 20.06123468 11.4315334 26.74609375 11.17578125 C28.35677734 11.08876953 28.35677734 11.08876953 30 11 C30 11.33 30 11.66 30 12 C22.08 12.495 22.08 12.495 14 13 C14 13.66 14 14.32 14 15 C15.32 15.66 16.64 16.32 18 17 C8.595 18.485 8.595 18.485 -1 20 C0 18 0 18 2 17 C0.35 16.67 -1.3 16.34 -3 16 C-3 15.67 -3 15.34 -3 15 C1.29 14.01 5.58 13.02 10 12 C9.278125 11.30132812 8.55625 10.60265625 7.8125 9.8828125 C6.884375 8.97273437 5.95625 8.06265625 5 7.125 C4.071875 6.22007812 3.14375 5.31515625 2.1875 4.3828125 C0 2 0 2 0 0 Z " fill="#393936" transform="translate(289,232)"/>
<path d="M0 0 C0.6628418 1.79785156 0.6628418 1.79785156 1 4 C-0.01635742 5.64746094 -0.01635742 5.64746094 -1.60546875 7.234375 C-2.17716797 7.80800781 -2.74886719 8.38164062 -3.33789062 8.97265625 C-3.94826172 9.55917969 -4.55863281 10.14570313 -5.1875 10.75 C-5.77853516 11.35199219 -6.36957031 11.95398438 -6.97851562 12.57421875 C-11.47956526 17 -11.47956526 17 -16 17 C-15.57957038 12.09498775 -13.56464878 10.24779111 -10 7 C-8.5041705 5.41595492 -7.01141569 3.82944401 -5.52734375 2.234375 C-3.73033477 0.78206083 -2.25280609 0.40695852 0 0 Z " fill="#1F1F1E" transform="translate(210,211)"/>
<path d="M0 0 C0 0.33 0 0.66 0 1 C-3.63 1.33 -7.26 1.66 -11 2 C-11 2.33 -11 2.66 -11 3 C-15.29119369 3.33961036 -19.58301661 3.6705324 -23.875 4 C-25.07898438 4.09539062 -26.28296875 4.19078125 -27.5234375 4.2890625 C-34.36571517 4.80967058 -41.13778476 5.14267384 -48 5 C-43.83010388 2.75029812 -39.89553055 2.08415483 -35.25 1.375 C-34.39051758 1.24311279 -33.53103516 1.11122559 -32.64550781 0.9753418 C-21.80298354 -0.51961231 -10.91808384 -0.2756378 0 0 Z " fill="#40403F" transform="translate(181,271)"/>
<path d="M0 0 C0.495 0.99 0.495 0.99 1 2 C-0.10118164 2.029729 -0.10118164 2.029729 -1.22460938 2.06005859 C-20.05731094 2.55879685 -20.05731094 2.55879685 -38.765625 4.59765625 C-42.20750459 5.02581277 -45.53516226 5.06595503 -49 5 C-48.67 4.34 -48.34 3.68 -48 3 C-45.02296502 2.32255363 -42.14151112 1.80373853 -39.125 1.375 C-38.21274658 1.24311279 -37.30049316 1.11122559 -36.3605957 0.9753418 C-24.28946779 -0.58225557 -12.1441347 -0.26950111 0 0 Z " fill="#3B3B3B" transform="translate(186,259)"/>
<path d="M0 0 C0 4.11385152 -2.21364537 5.66162086 -4.9375 8.4375 C-9.03545294 12.59535114 -9.03545294 12.59535114 -11 18 C-15.29 18 -19.58 18 -24 18 C-23.67 17.34 -23.34 16.68 -23 16 C-25.31 15.67 -27.62 15.34 -30 15 C-30 14.67 -30 14.34 -30 14 C-28.47632813 14.08314453 -28.47632813 14.08314453 -26.921875 14.16796875 C-19.70365759 14.29551463 -14.26955774 14.02822502 -8.68066406 9.09301758 C-6.35345017 6.80342186 -4.15718961 4.45203041 -2 2 C-1.34 1.34 -0.68 0.68 0 0 Z " fill="#1C1C17" transform="translate(211,230)"/>
<path d="M0 0 C1.08809212 0.00212242 1.08809212 0.00212242 2.19816589 0.00428772 C4.50064325 0.00985694 6.8030211 0.02240364 9.10546875 0.03515625 C10.67252463 0.04017523 12.23958205 0.04473744 13.80664062 0.04882812 C17.63545464 0.05981627 21.46419486 0.07705952 25.29296875 0.09765625 C25.29296875 0.75765625 25.29296875 1.41765625 25.29296875 2.09765625 C12.61026024 2.83902543 -0.00274728 3.23574629 -12.70703125 3.09765625 C-12.70703125 2.43765625 -12.70703125 1.77765625 -12.70703125 1.09765625 C-8.45757272 0.05778028 -4.34775269 -0.03224006 0 0 Z " fill="#1B1A18" transform="translate(155.70703125,286.90234375)"/>
<path d="M0 0 C5.36513131 0.847126 10.6787385 1.91681831 16 3 C15.67 4.32 15.34 5.64 15 7 C15.99 7.33 16.98 7.66 18 8 C14.76171333 7.55841545 11.53847302 7.09576342 8.3203125 6.5234375 C0.89336127 5.2035284 -6.47233151 4.46137323 -14 4 C-14 3.67 -14 3.34 -14 3 C-9.38 3 -4.76 3 0 3 C0 2.01 0 1.02 0 0 Z " fill="#31312E" transform="translate(200,245)"/>
<path d="M0 0 C0.99 0.33 1.98 0.66 3 1 C3 7.6 3 14.2 3 21 C1.68 21 0.36 21 -1 21 C-1.02888146 17.68751813 -1.04675799 14.37506833 -1.0625 11.0625 C-1.07087891 10.11697266 -1.07925781 9.17144531 -1.08789062 8.19726562 C-1.09111328 7.29814453 -1.09433594 6.39902344 -1.09765625 5.47265625 C-1.10289307 4.64000244 -1.10812988 3.80734863 -1.11352539 2.94946289 C-1 1 -1 1 0 0 Z " fill="#1A1A1A" transform="translate(249,273)"/>
<path d="M0 0 C0 0.33 0 0.66 0 1 C-1.65 1 -3.3 1 -5 1 C-5 1.66 -5 2.32 -5 3 C-2.03 3 0.94 3 4 3 C4 3.33 4 3.66 4 4 C3.154375 4.06058594 2.30875 4.12117188 1.4375 4.18359375 C-0.2640625 4.30927734 -0.2640625 4.30927734 -2 4.4375 C-3.1859375 4.52257812 -4.371875 4.60765625 -5.59375 4.6953125 C-8.29089522 4.9365709 -10.84596962 5.31231735 -13.5 5.8125 C-17.87351375 6.04679538 -18.81677853 4.80712167 -22 2 C-7.40318907 -0.29612756 -7.40318907 -0.29612756 0 0 Z " fill="#363635" transform="translate(148,287)"/>
<path d="M0 0 C1.12894876 0.93274109 2.25300876 1.87140122 3.375 2.8125 C4.00148438 3.33457031 4.62796875 3.85664063 5.2734375 4.39453125 C7 6 7 6 9 9 C8.125 11.6875 8.125 11.6875 7 14 C-0.48291572 7.84965831 -0.48291572 7.84965831 -3 4 C-2.34 4 -1.68 4 -1 4 C-0.67 2.68 -0.34 1.36 0 0 Z " fill="#2C2B29" transform="translate(294,213)"/>
<path d="M0 0 C1.32 0 2.64 0 4 0 C4.33 2.31 4.66 4.62 5 7 C-0.75 10 -0.75 10 -3 10 C-3.28875 9.360625 -3.5775 8.72125 -3.875 8.0625 C-4.82823451 5.84793921 -4.82823451 5.84793921 -7 5 C-7.33 5.66 -7.66 6.32 -8 7 C-10.31 6.01 -12.62 5.02 -15 4 C-15 3.67 -15 3.34 -15 3 C-13.824375 3.0309375 -13.824375 3.0309375 -12.625 3.0625 C-10.01885039 3.18684063 -10.01885039 3.18684063 -8 2 C-5.5249829 3.11431765 -3.32116581 4.58150978 -1 6 C-0.67 4.02 -0.34 2.04 0 0 Z " fill="#323230" transform="translate(248,299)"/>
<path d="M0 0 C0.66 1.32 1.32 2.64 2 4 C-4.6 4 -11.2 4 -18 4 C-17.67 3.01 -17.34 2.02 -17 1 C-11.27959989 0.1679418 -5.77759884 -0.12036664 0 0 Z " fill="#171715" transform="translate(320,244)"/>
<path d="M0 0 C0 0.33 0 0.66 0 1 C-7.92 1.495 -7.92 1.495 -16 2 C-16 2.33 -16 2.66 -16 3 C-22.6 3 -29.2 3 -36 3 C-35.67 2.34 -35.34 1.68 -35 1 C-23.71546703 -1.15524413 -11.43279733 -0.10005814 0 0 Z " fill="#41413F" transform="translate(341,271)"/>
<path d="M0 0 C2.09350689 3.4019487 2.17942163 6.05272412 2 10 C1.01 10.33 0.02 10.66 -1 11 C0.32 11.66 1.64 12.32 3 13 C-2.75 13.125 -2.75 13.125 -5 12 C-5.58305225 8.15185513 -4.7002883 6.23691365 -2.5 3.1875 C-1.67780256 2.11635945 -0.84795951 1.0508641 0 0 Z " fill="#2B2B29" transform="translate(85,305)"/>
<path d="M0 0 C1.65 0.33 3.3 0.66 5 1 C4.50153711 4.68862535 3.9758353 6.68546144 1 9 C-1.1875 10.1875 -1.1875 10.1875 -3 11 C-3.75 8.875 -3.75 8.875 -4 6 C-2.0625 2.6875 -2.0625 2.6875 0 0 Z " fill="#22221F" transform="translate(116,258)"/>
<path d="M0 0 C0.103125 0.639375 0.20625 1.27875 0.3125 1.9375 C0.539375 2.618125 0.76625 3.29875 1 4 C1.99 4.33 2.98 4.66 4 5 C3.09972412 6.03531726 2.17906965 7.05294165 1.25 8.0625 C0.73953125 8.63097656 0.2290625 9.19945312 -0.296875 9.78515625 C-2 11 -2 11 -4.203125 10.68359375 C-4.79609375 10.45800781 -5.3890625 10.23242188 -6 10 C-5.58578031 5.16743695 -3.53586014 3.17320782 0 0 Z " fill="#2A2A2A" transform="translate(193,224)"/>
<path d="M0 0 C2.375 0.5625 2.375 0.5625 4.375 3.5625 C3.055 3.8925 1.735 4.2225 0.375 4.5625 C0.045 5.8825 -0.285 7.2025 -0.625 8.5625 C-2.275 8.5625 -3.925 8.5625 -5.625 8.5625 C-5.955 7.9025 -6.285 7.2425 -6.625 6.5625 C-3.3356599 0.71478426 -3.3356599 0.71478426 0 0 Z " fill="#1A1A17" transform="translate(97.625,292.4375)"/>
<path d="M0 0 C0.66 0 1.32 0 2 0 C2.33 1.32 2.66 2.64 3 4 C5.64 4.33 8.28 4.66 11 5 C10.01 6.485 10.01 6.485 9 8 C6.6875 8.36328125 6.6875 8.36328125 4 8.3125 C3.113125 8.30863281 2.22625 8.30476562 1.3125 8.30078125 C-1 8 -1 8 -3 6 C-2.67 5.01 -2.34 4.02 -2 3 C-1.34 3 -0.68 3 0 3 C0 2.01 0 1.02 0 0 Z " fill="#171815" transform="translate(178,240)"/>
<path d="M0 0 C0 0.66 0 1.32 0 2 C1.32 2.66 2.64 3.32 4 4 C-8.66970387 6.66514806 -8.66970387 6.66514806 -14 4 C-9.8890341 1.60193656 -4.7653956 0 0 0 Z " fill="#373735" transform="translate(294,289)"/>
<path d="M0 0 C0 4.24060278 -2.36210808 6.19059446 -5.0625 9.1875 C-5.52849609 9.74630859 -5.99449219 10.30511719 -6.47460938 10.88085938 C-9.28239173 14.00953114 -10.62601235 14.96490328 -14.87109375 15.36328125 C-16.41990234 15.18345703 -16.41990234 15.18345703 -18 15 C-17.46632812 14.7834375 -16.93265625 14.566875 -16.3828125 14.34375 C-13.13430401 12.51180423 -10.572802 10.04026612 -7.875 7.5 C-7.06869141 6.75169922 -7.06869141 6.75169922 -6.24609375 5.98828125 C-4.13236554 4.02214504 -2.04136111 2.04136111 0 0 Z " fill="#6E6D68" transform="translate(211,230)"/>
<path d="M0 0 C0.33 0.66 0.66 1.32 1 2 C2.33076989 2.34342449 3.66431979 2.67619874 5 3 C5.66 3.66 6.32 4.32 7 5 C6.625 7.625 6.625 7.625 6 10 C3.32388302 9.63088042 2.1568531 9.15144437 0.1875 7.25 C-1.31690887 4.3995411 -0.92250763 3.01911587 0 0 Z " fill="#2A2A28" transform="translate(287,207)"/>
<path d="M0 0 C1.32 0.99 2.64 1.98 4 3 C4.33 2.01 4.66 1.02 5 0 C6 3 6 3 5.00390625 5.04296875 C4.52824219 5.75066406 4.05257812 6.45835937 3.5625 7.1875 C3.08941406 7.90292969 2.61632812 8.61835938 2.12890625 9.35546875 C1.57009766 10.16951172 1.57009766 10.16951172 1 11 C0.34 9.68 -0.32 8.36 -1 7 C-1.99 7.33 -2.98 7.66 -4 8 C-2.87548273 5.0280615 -1.77706209 2.66559313 0 0 Z " fill="#282926" transform="translate(111,266)"/>
<path d="M0 0 C1.4068813 2.23445853 2.02303051 3.58545079 1.875 6.25 C0.66487687 10.05324414 -1.12496789 13.48540493 -3 17 C-4.15903767 13.53110711 -3.85595132 10.94327972 -3.1875 7.375 C-3.01605469 6.41335937 -2.84460938 5.45171875 -2.66796875 4.4609375 C-2 2 -2 2 0 0 Z " fill="#323230" transform="translate(250,173)"/>
<path d="M0 0 C6.93 0.495 6.93 0.495 14 1 C13.01 1.66 12.02 2.32 11 3 C11 3.66 11 4.32 11 5 C4.07 4.505 4.07 4.505 -3 4 C-3 3.67 -3 3.34 -3 3 C-1.02 2.67 0.96 2.34 3 2 C2.01 1.34 1.02 0.68 0 0 Z " fill="#3E3E3D" transform="translate(359,288)"/>
<path d="M0 0 C0.66 0.33 1.32 0.66 2 1 C-1.42616034 7.72995781 -1.42616034 7.72995781 -4.125 9 C-6 9 -6 9 -8 8 C-8 6.68 -8 5.36 -8 4 C-5.34601922 2.23067948 -3.9651626 1.69187127 -1 1 C-0.67 0.67 -0.34 0.34 0 0 Z " fill="#F5F1EC" transform="translate(227,235)"/>
<path d="M0 0 C0 0.33 0 0.66 0 1 C-2.58157368 1.53132389 -5.16461756 2.05034379 -7.75 2.5625 C-8.84441406 2.78969727 -8.84441406 2.78969727 -9.9609375 3.02148438 C-13.66557073 3.74557178 -16.39322322 4.09817231 -20 3 C-18.75108386 2.51801537 -17.50081192 2.03954323 -16.25 1.5625 C-15.55390625 1.29566406 -14.8578125 1.02882813 -14.140625 0.75390625 C-8.91743868 -1.0856466 -5.45826152 -0.81873923 0 0 Z " fill="#4C4C4C" transform="translate(300,263)"/>
<path d="M0 0 C0.969375 0.12375 1.93875 0.2475 2.9375 0.375 C3.5975 1.365 4.2575 2.355 4.9375 3.375 C0.54278993 6.42688199 0.54278993 6.42688199 -2.25 6.1875 C-4.0625 5.375 -4.0625 5.375 -6.0625 3.375 C-4.13380831 0.80341108 -3.26844961 0.40021832 0 0 Z " fill="#292928" transform="translate(251.0625,258.625)"/>
<path d="M0 0 C5.19591612 0.44033187 8.66335081 0.88303339 13 4 C12.67 4.66 12.34 5.32 12 6 C10.56206608 5.68950274 9.1246682 5.3765224 7.6875 5.0625 C6.88699219 4.88847656 6.08648437 4.71445312 5.26171875 4.53515625 C3 4 3 4 0 3 C0 2.01 0 1.02 0 0 Z " fill="#272725" transform="translate(226,297)"/>
<path d="M0 0 C3.79588866 0.54226981 5.47211993 2.20127563 8 5 C7.67 5.66 7.34 6.32 7 7 C4 8 4 8 1.8125 7.0625 C1.214375 6.711875 0.61625 6.36125 0 6 C0 4.02 0 2.04 0 0 Z " fill="#23221E" transform="translate(301,222)"/>
<path d="M0 0 C0.33 0.66 0.66 1.32 1 2 C-3.33420699 4.03165952 -7.28596212 4.52060632 -12 5 C-11.1875 3.0625 -11.1875 3.0625 -10 1 C-6.52674819 -0.1577506 -3.63932552 -0.06866652 0 0 Z " fill="#232321" transform="translate(285,293)"/>
<path d="M0 0 C0.66 0.33 1.32 0.66 2 1 C1.67 1.66 1.34 2.32 1 3 C2.65 2.67 4.3 2.34 6 2 C2.63576723 4.96052484 -0.69159287 5.92289822 -5 7 C-5 6.01 -5 5.02 -5 4 C-5.66 3.67 -6.32 3.34 -7 3 C-4.69631264 1.93347808 -2.35981813 0.93578995 0 0 Z " fill="#2A2A29" transform="translate(272,295)"/>
<path d="M0 0 C0.99 0 1.98 0 3 0 C3.66 2.31 4.32 4.62 5 7 C4.01 7.33 3.02 7.66 2 8 C-0.1875 6.5625 -0.1875 6.5625 -2 5 C-1.125 1.125 -1.125 1.125 0 0 Z " fill="#1D1D1B" transform="translate(398,285)"/>
<path d="M0 0 C0.66 0.33 1.32 0.66 2 1 C1.67 1.66 1.34 2.32 1 3 C1.66 3 2.32 3 3 3 C1.9024777 5.99324263 1.32317108 6.84610901 -1.625 8.25 C-2.40875 8.4975 -3.1925 8.745 -4 9 C-4.33 8.01 -4.66 7.02 -5 6 C-4.34 6 -3.68 6 -3 6 C-2.690625 5.195625 -2.38125 4.39125 -2.0625 3.5625 C-1 1 -1 1 0 0 Z " fill="#1C1C1B" transform="translate(186,231)"/>
<path d="M0 0 C3.875 0.875 3.875 0.875 5 2 C5.04063832 3.66617115 5.042721 5.33388095 5 7 C2 7 2 7 0.25 5.75 C-1 4 -1 4 -0.6875 1.8125 C-0.460625 1.214375 -0.23375 0.61625 0 0 Z " fill="#1F201C" transform="translate(388,270)"/>
<path d="M0 0 C1.58246707 -0.08153933 3.16616273 -0.13943557 4.75 -0.1875 C6.07257813 -0.23970703 6.07257813 -0.23970703 7.421875 -0.29296875 C10.44671583 0.05076316 11.75583602 1.00227459 14 3 C10.78543644 4.03719328 8.59074417 3.94068337 5.3125 3.1875 C4.52488281 3.01605469 3.73726563 2.84460938 2.92578125 2.66796875 C1 2 1 2 0 0 Z " fill="#1C1C1A" transform="translate(386,293)"/>
<path d="M0 0 C0.99 0.99 1.98 1.98 3 3 C-1.62 3 -6.24 3 -11 3 C-7.70010834 -0.29989166 -4.49204438 -0.37433703 0 0 Z " fill="#1E1E1C" transform="translate(128,290)"/>
<path d="M0 0 C0.99 0.33 1.98 0.66 3 1 C3 6.28 3 11.56 3 17 C2.67 17 2.34 17 2 17 C1.67 13.04 1.34 9.08 1 5 C0.01 5.495 0.01 5.495 -1 6 C-1.042721 4.33388095 -1.04063832 2.66617115 -1 1 C-0.67 0.67 -0.34 0.34 0 0 Z " fill="#252525" transform="translate(249,273)"/>
<path d="M0 0 C0 0.33 0 0.66 0 1 C-8.91 2.485 -8.91 2.485 -18 4 C-18 3.34 -18 2.68 -18 2 C-11.64647324 -0.03358813 -6.57293456 -1.60671734 0 0 Z " fill="#5C5C5C" transform="translate(298,276)"/>
<path d="M0 0 C1.9375 0.1875 1.9375 0.1875 4 1 C5.25 3.0625 5.25 3.0625 6 5 C5.34 5 4.68 5 4 5 C3.67 4.34 3.34 3.68 3 3 C1.68 3.33 0.36 3.66 -1 4 C-1 1 -1 1 0 0 Z M-2 4 C-1.67 4.99 -1.34 5.98 -1 7 C-1.66 7 -2.32 7 -3 7 C-3.33 7.66 -3.66 8.32 -4 9 C-4.99 8.01 -5.98 7.02 -7 6 C-5.35 6 -3.7 6 -2 6 C-2 5.34 -2 4.68 -2 4 Z " fill="#31312D" transform="translate(410,303)"/>
<path d="M0 0 C0.63615234 0.56267578 0.63615234 0.56267578 1.28515625 1.13671875 C5.36517338 4.69664579 9.5513476 7.91317997 14 11 C13.01 11.66 12.02 12.32 11 13 C9.16052663 11.21427748 7.32842259 9.42197551 5.5 7.625 C4.71302734 6.86316406 4.71302734 6.86316406 3.91015625 6.0859375 C2.56846819 4.76167396 1.28004185 3.38394135 0 2 C0 1.34 0 0.68 0 0 Z " fill="#686661" transform="translate(289,232)"/>
<path d="M0 0 C0.66 0.33 1.32 0.66 2 1 C1.01 2.485 1.01 2.485 0 4 C-0.66 4 -1.32 4 -2 4 C-1.34 5.32 -0.68 6.64 0 8 C-0.33 8.33 -0.66 8.66 -1 9 C1.97 9.495 1.97 9.495 5 10 C5 10.33 5 10.66 5 11 C2.36 11 -0.28 11 -3 11 C-3.75 7.75 -3.75 7.75 -4 4 C-2.0625 1.5625 -2.0625 1.5625 0 0 Z " fill="#393936" transform="translate(183,233)"/>
<path d="M0 0 C-1.98 0.66 -3.96 1.32 -6 2 C-6 2.99 -6 3.98 -6 5 C-8.64 5.66 -11.28 6.32 -14 7 C-13.09515208 5.84481082 -12.1755794 4.70114594 -11.25 3.5625 C-10.73953125 2.92441406 -10.2290625 2.28632813 -9.703125 1.62890625 C-6.61792853 -1.32184358 -3.9198776 -1.25996066 0 0 Z " fill="#40403E" transform="translate(286,249)"/>
<path d="M0 0 C0.99 0.33 1.98 0.66 3 1 C3.33 3.31 3.66 5.62 4 8 C3.34 7.67 2.68 7.34 2 7 C2 6.34 2 5.68 2 5 C1.01 5.33 0.02 5.66 -1 6 C-1.66 4.68 -2.32 3.36 -3 2 C-2.01 1.34 -1.02 0.68 0 0 Z " fill="#353533" transform="translate(257,302)"/>
<path d="M0 0 C0.66 0.33 1.32 0.66 2 1 C1.34 2.32 0.68 3.64 0 5 C0.66 5.66 1.32 6.32 2 7 C1.01 7.66 0.02 8.32 -1 9 C-1.33 8.34 -1.66 7.68 -2 7 C-3.32 6.67 -4.64 6.34 -6 6 C-4.02 4.02 -2.04 2.04 0 0 Z " fill="#3A3A39" transform="translate(212,205)"/>
<path d="M0 0 C1.32 1.65 2.64 3.3 4 5 C3.01 5.33 2.02 5.66 1 6 C0.26676204 8.01508358 0.26676204 8.01508358 0 10 C-0.99 8.02 -1.98 6.04 -3 4 C-2.34 3.67 -1.68 3.34 -1 3 C-0.67 2.01 -0.34 1.02 0 0 Z " fill="#2D2D2D" transform="translate(268,180)"/>
<path d="M0 0 C0.99 0.33 1.98 0.66 3 1 C3.33 2.98 3.66 4.96 4 7 C3.01 7.495 3.01 7.495 2 8 C1.34 7.67 0.68 7.34 0 7 C-0.6875 4 -0.6875 4 -1 1 C-0.67 0.67 -0.34 0.34 0 0 Z " fill="#171715" transform="translate(381,258)"/>
<path d="M0 0 C0.99 0.99 1.98 1.98 3 3 C2.34 4.65 1.68 6.3 1 8 C-0.98 6.35 -2.96 4.7 -5 3 C-4.34 2.67 -3.68 2.34 -3 2 C-2.34 2.33 -1.68 2.66 -1 3 C-0.67 2.01 -0.34 1.02 0 0 Z " fill="#3C3C39" transform="translate(300,219)"/>
<path d="M0 0 C0.99 0 1.98 0 3 0 C2.67 1.65 2.34 3.3 2 5 C1.01 5.33 0.02 5.66 -1 6 C-1.625 4.125 -1.625 4.125 -2 2 C-1.34 1.34 -0.68 0.68 0 0 Z " fill="#161712" transform="translate(109,272)"/>
<path d="M0 0 C2.9425963 0.30652045 5.34542308 0.67271154 8 2 C8 2.66 8 3.32 8 4 C4.7 3.34 1.4 2.68 -2 2 C-1.34 1.34 -0.68 0.68 0 0 Z " fill="#565656" transform="translate(213,264)"/>
<path d="M0 0 C0.99 1.32 1.98 2.64 3 4 C2.1875 5.9375 2.1875 5.9375 1 8 C0.01 8.33 -0.98 8.66 -2 9 C-2.33 8.01 -2.66 7.02 -3 6 C-2.01 6 -1.02 6 0 6 C-0.185625 5.38125 -0.37125 4.7625 -0.5625 4.125 C-1 2 -1 2 0 0 Z " fill="#343431" transform="translate(384,259)"/>
<path d="M0 0 C1.32 0 2.64 0 4 0 C3.67 1.32 3.34 2.64 3 4 C1.35 4 -0.3 4 -2 4 C-1.34 2.68 -0.68 1.36 0 0 Z " fill="#1D1D1A" transform="translate(365,248)"/>
<path d="M0 0 C0.99 0.33 1.98 0.66 3 1 C2.1875 2.9375 2.1875 2.9375 1 5 C0.01 5.33 -0.98 5.66 -2 6 C-2 2 -2 2 0 0 Z " fill="#242422" transform="translate(177,238)"/>
<path d="M0 0 C0.33 0.66 0.66 1.32 1 2 C1.99 2 2.98 2 4 2 C4.33 3.65 4.66 5.3 5 7 C3.02 6.01 1.04 5.02 -1 4 C-0.67 2.68 -0.34 1.36 0 0 Z " fill="#1A1916" transform="translate(287,207)"/>
<path d="M0 0 C0.66 0.33 1.32 0.66 2 1 C1.67 1.66 1.34 2.32 1 3 C2.65 2.67 4.3 2.34 6 2 C2.375 5 2.375 5 -1 5 C-1.33 3.68 -1.66 2.36 -2 1 C-1.34 0.67 -0.68 0.34 0 0 Z " fill="#484846" transform="translate(272,295)"/>
<path d="M0 0 C1.98 0.495 1.98 0.495 4 1 C3.67 2.32 3.34 3.64 3 5 C1.68 5 0.36 5 -1 5 C-0.67 3.35 -0.34 1.7 0 0 Z " fill="#151612" transform="translate(117,258)"/>
<path d="M0 0 C1.32 0.66 2.64 1.32 4 2 C3.67 2.99 3.34 3.98 3 5 C1.68 4.67 0.36 4.34 -1 4 C-0.67 2.68 -0.34 1.36 0 0 Z " fill="#1C1C19" transform="translate(221,194)"/>
</svg>
