<svg xmlns="http://www.w3.org/2000/svg" xmlns:v="https://svgstorm.com"
viewBox = "0 0 856 856"
width="856"
height="856">
<g fill="None" fill-opacity="0.0" stroke="#000000" stroke-opacity="0.00" stroke-width="0.3"><path d="
M 0.00 157.00 
C 7.28 77.30 78.13 6.62 158.00 0.00
L 0.00 0.00
L 0.00 157.00 Z"/>
</g>
<g fill="None" fill-opacity="0.0" stroke="#1D3FAC" stroke-opacity="1.00" stroke-width="0.3"><path d="
M 0.00 157.00 
L 0.00 699.00
C 7.20 778.46 77.64 848.79 157.00 856.00
L 689.00 856.00
C 691.43 854.26 695.82 855.00 699.00 855.00
C 739.18 855.00 775.75 831.80 804.75 804.75 C 833.76 777.70 851.11 736.95 856.00 699.00
L 856.00 157.00
C 848.78 77.23 777.80 6.60 698.00 0.00
L 691.00 0.00
C 688.39 1.56 682.54 1.72 680.00 0.00
L 176.00 0.00
C 174.04 1.52 168.89 1.72 167.00 0.00
L 158.00 0.00
C 78.13 6.62 7.28 77.30 0.00 157.00
M 676.00 542.00 
C 675.60 544.45 670.30 542.22 668.00 542.00
C 654.17 542.00 640.17 539.18 627.00 537.00 C 613.82 534.83 602.77 530.66 589.78 528.22 C 576.78 525.79 564.26 522.68 551.00 521.00 C 537.74 519.32 521.52 517.01 507.98 519.98 C 494.43 522.95 492.21 507.63 486.23 497.77 C 480.25 487.91 476.61 477.19 471.22 466.78 C 465.84 456.36 462.26 445.37 457.68 434.32 C 453.10 423.28 449.60 411.72 446.02 399.98 C 442.44 388.23 438.90 376.28 436.02 363.98 C 433.15 351.67 430.02 337.68 428.00 325.00
C 427.69 324.76 426.25 324.75 426.00 325.00
C 416.10 394.28 388.40 459.97 355.00 521.00
C 296.77 511.67 243.91 539.48 187.00 542.00
C 184.60 542.23 178.33 544.56 178.00 542.00
C 177.36 537.05 186.29 530.37 188.30 525.30 C 190.32 520.24 196.18 514.34 198.92 508.92 C 201.67 503.51 207.44 497.95 210.25 492.25 C 213.07 486.56 217.83 481.77 221.25 476.25 C 224.68 470.74 228.34 464.57 232.25 459.25 C 236.17 453.94 238.92 448.18 242.77 442.77 C 246.62 437.36 250.14 431.36 253.92 425.92 C 257.70 420.48 260.60 414.74 264.31 409.30 C 268.01 403.87 271.84 398.92 275.30 393.30 C 278.77 387.69 282.59 381.81 286.30 376.30 C 290.01 370.80 293.12 365.38 296.92 359.92 C 300.72 354.46 304.49 348.55 307.92 342.92 C 311.35 337.29 315.44 332.44 318.77 326.77 C 322.10 321.10 326.21 315.33 329.77 309.77 C 333.33 304.21 336.76 298.85 340.30 293.30 C 343.84 287.75 347.74 282.87 351.25 277.25 C 354.77 271.64 358.36 265.51 361.92 259.92 C 365.49 254.34 369.10 249.27 372.77 243.77 C 376.44 238.27 380.28 232.40 383.77 226.77 C 387.26 221.15 390.50 215.75 394.30 210.30 C 398.11 204.86 401.85 198.93 405.30 193.30 C 408.76 187.68 412.44 182.44 415.92 176.92 C 419.41 171.41 422.86 164.34 428.00 161.00
C 509.40 288.76 593.48 414.94 676.00 542.00
M 182.00 561.00 
C 173.55 576.67 162.90 591.20 155.00 607.00
C 235.50 598.53 325.17 537.26 402.00 592.00
C 402.36 592.22 403.00 592.00 403.00 592.00
C 412.95 599.60 419.38 610.84 428.00 619.00
C 453.58 568.22 522.67 556.08 572.00 576.00
C 614.62 584.68 655.09 601.97 699.00 606.00
C 690.71 591.40 681.03 577.72 673.00 563.00
C 672.65 562.16 670.02 561.73 671.00 560.00
C 677.05 561.15 685.53 557.59 690.00 562.00
C 696.89 568.18 700.57 579.16 706.75 586.25 C 712.94 593.33 718.49 602.48 723.75 610.25 C 729.02 618.01 740.16 627.05 737.00 637.00
C 734.28 645.57 714.22 639.75 704.00 641.00 C 693.78 642.25 676.74 640.43 665.00 641.00 C 653.26 641.57 638.43 640.74 626.00 641.00 C 613.57 641.26 599.73 640.88 587.00 641.00 C 574.27 641.12 560.86 640.94 548.00 641.00 C 535.14 641.06 521.90 640.95 509.00 641.00
C 508.33 654.50 510.33 669.32 508.00 682.00
C 507.63 682.84 508.30 684.13 508.00 685.00
C 505.36 684.84 503.38 681.98 502.00 680.00
C 497.75 676.84 493.00 673.60 490.00 669.00
C 483.60 674.69 477.52 680.60 471.00 686.00
C 471.00 674.33 471.00 662.67 471.00 651.00
C 470.79 649.52 469.53 646.81 469.00 645.00
C 466.59 646.11 465.38 648.96 463.00 650.00
C 454.52 656.30 445.76 659.78 435.00 660.00
C 428.96 660.73 421.99 660.86 416.00 660.00
C 411.83 659.84 408.83 659.21 405.00 658.00
C 399.93 657.52 395.95 656.70 390.92 653.08 C 385.90 649.46 385.06 645.15 379.77 642.23 C 374.47 639.31 365.65 641.51 359.00 641.00 C 352.35 640.49 344.03 641.23 337.00 641.00 C 329.97 640.77 322.19 641.11 315.00 641.00 C 307.81 640.89 300.26 641.05 293.00 641.00 C 285.74 640.95 278.29 641.03 271.00 641.00 C 263.71 640.97 256.28 641.03 249.00 641.00 C 241.72 640.97 234.23 641.04 227.00 641.00 C 219.77 640.96 212.12 641.08 205.00 641.00 C 197.88 640.92 189.88 641.18 183.00 641.00 C 176.12 640.82 167.32 641.39 161.00 641.00 C 154.68 640.61 144.09 641.86 139.00 641.00 C 133.91 640.14 120.03 643.81 119.00 639.00
C 110.80 636.85 119.67 622.86 123.92 618.92 C 128.16 614.98 132.90 605.29 137.30 600.30 C 141.70 595.31 145.53 587.60 150.25 582.25 C 154.98 576.91 158.63 568.64 163.00 563.00
C 167.04 557.78 176.69 559.87 182.00 561.00 Z"/>
</g>
<g fill="None" fill-opacity="0.0" stroke="#1C40AE" stroke-opacity="0.81" stroke-width="0.3"><path d="
M 176.00 0.00 
L 167.00 0.00
C 168.89 1.72 174.04 1.52 176.00 0.00 Z"/>
</g>
<g fill="None" fill-opacity="0.0" stroke="#1B3EAC" stroke-opacity="0.78" stroke-width="0.3"><path d="
M 691.00 0.00 
L 680.00 0.00
C 682.54 1.72 688.39 1.56 691.00 0.00 Z"/>
</g>
<g fill="None" fill-opacity="0.0" stroke="#000000" stroke-opacity="0.00" stroke-width="0.3"><path d="
M 856.00 157.00 
L 856.00 0.00
L 698.00 0.00
C 777.80 6.60 848.78 77.23 856.00 157.00 Z"/>
</g>
<g fill="None" fill-opacity="0.0" stroke="#FDFDFE" stroke-opacity="1.00" stroke-width="0.3"><path d="
M 178.00 542.00 
C 180.41 541.21 184.44 542.00 187.00 542.00
C 243.91 539.48 296.77 511.67 355.00 521.00
C 388.40 459.97 416.10 394.28 426.00 325.00
C 426.32 322.78 425.01 319.40 427.00 318.00
C 427.56 320.24 428.38 322.48 428.00 325.00
C 430.02 337.68 433.15 351.67 436.02 363.98 C 438.90 376.28 442.44 388.23 446.02 399.98 C 449.60 411.72 453.10 423.28 457.68 434.32 C 462.26 445.37 465.84 456.36 471.22 466.78 C 476.61 477.19 480.25 487.91 486.23 497.77 C 492.21 507.63 494.43 522.95 507.98 519.98 C 521.52 517.01 537.74 519.32 551.00 521.00 C 564.26 522.68 576.78 525.79 589.78 528.22 C 602.77 530.66 613.82 534.83 627.00 537.00 C 640.17 539.18 654.17 542.00 668.00 542.00
C 670.27 542.00 673.86 541.30 676.00 542.00
C 593.48 414.94 509.40 288.76 428.00 161.00
C 422.86 164.34 419.41 171.41 415.92 176.92 C 412.44 182.44 408.76 187.68 405.30 193.30 C 401.85 198.93 398.11 204.86 394.30 210.30 C 390.50 215.75 387.26 221.15 383.77 226.77 C 380.28 232.40 376.44 238.27 372.77 243.77 C 369.10 249.27 365.49 254.34 361.92 259.92 C 358.36 265.51 354.77 271.64 351.25 277.25 C 347.74 282.87 343.84 287.75 340.30 293.30 C 336.76 298.85 333.33 304.21 329.77 309.77 C 326.21 315.33 322.10 321.10 318.77 326.77 C 315.44 332.44 311.35 337.29 307.92 342.92 C 304.49 348.55 300.72 354.46 296.92 359.92 C 293.12 365.38 290.01 370.80 286.30 376.30 C 282.59 381.81 278.77 387.69 275.30 393.30 C 271.84 398.92 268.01 403.87 264.31 409.30 C 260.60 414.74 257.70 420.48 253.92 425.92 C 250.14 431.36 246.62 437.36 242.77 442.77 C 238.92 448.18 236.17 453.94 232.25 459.25 C 228.34 464.57 224.68 470.74 221.25 476.25 C 217.83 481.77 213.07 486.56 210.25 492.25 C 207.44 497.95 201.67 503.51 198.92 508.92 C 196.18 514.34 190.32 520.24 188.30 525.30 C 186.29 530.37 177.36 537.05 178.00 542.00 Z"/>
</g>
<g fill="None" fill-opacity="0.0" stroke="#52566B" stroke-opacity="1.00" stroke-width="0.3"><path d="
M 426.00 325.00 
C 426.25 324.75 427.69 324.76 428.00 325.00
C 428.38 322.48 427.56 320.24 427.00 318.00
C 425.01 319.40 426.32 322.78 426.00 325.00 Z"/>
</g>
<g fill="None" fill-opacity="0.0" stroke="#94A4DD" stroke-opacity="1.00" stroke-width="0.3"><path d="
M 187.00 542.00 
C 184.44 542.00 180.41 541.21 178.00 542.00
C 178.33 544.56 184.60 542.23 187.00 542.00 Z"/>
</g>
<g fill="None" fill-opacity="0.0" stroke="#97A8E3" stroke-opacity="1.00" stroke-width="0.3"><path d="
M 676.00 542.00 
C 673.86 541.30 670.27 542.00 668.00 542.00
C 670.30 542.22 675.60 544.45 676.00 542.00 Z"/>
</g>
<g fill="None" fill-opacity="0.0" stroke="#667A9F" stroke-opacity="1.00" stroke-width="0.3"><path d="
M 163.00 563.00 
C 167.73 558.45 176.13 562.27 182.00 561.00
C 176.69 559.87 167.04 557.78 163.00 563.00 Z"/>
</g>
<g fill="None" fill-opacity="0.0" stroke="#6980AA" stroke-opacity="1.00" stroke-width="0.3"><path d="
M 673.00 563.00 
C 672.94 560.05 686.36 559.68 690.00 562.00
C 685.53 557.59 677.05 561.15 671.00 560.00
C 670.02 561.73 672.65 562.16 673.00 563.00 Z"/>
</g>
<g fill="None" fill-opacity="0.0" stroke="#F8FBFC" stroke-opacity="1.00" stroke-width="0.3"><path d="
M 163.00 563.00 
C 158.63 568.64 154.98 576.91 150.25 582.25 C 145.53 587.60 141.70 595.31 137.30 600.30 C 132.90 605.29 128.16 614.98 123.92 618.92 C 119.67 622.86 110.80 636.85 119.00 639.00
C 119.47 639.12 120.00 639.00 120.00 639.00
C 193.33 639.00 266.67 639.00 340.00 639.00
C 346.55 639.00 354.60 638.28 361.00 639.00 C 367.40 639.72 376.89 636.74 382.00 640.00
C 385.78 642.41 386.26 648.45 390.75 651.25 C 395.24 654.04 399.90 656.39 405.00 658.00
C 408.83 659.21 411.83 659.84 416.00 660.00
C 422.29 660.24 428.70 660.13 435.00 660.00
C 445.76 659.78 454.52 656.30 463.00 650.00
C 466.25 647.17 468.26 642.89 471.00 640.00
C 471.00 643.67 471.00 647.33 471.00 651.00
C 471.00 662.67 471.00 674.33 471.00 686.00
C 477.52 680.60 483.60 674.69 490.00 669.00
C 493.00 673.60 497.75 676.84 502.00 680.00
C 503.71 681.27 505.23 682.93 507.00 684.00
C 507.76 671.33 505.98 658.67 507.00 646.00 C 508.02 633.33 527.65 640.21 539.00 639.00 C 550.36 637.79 565.83 639.56 578.00 639.00 C 590.17 638.44 603.41 639.25 616.00 639.00 C 628.59 638.75 642.19 639.12 655.00 639.00 C 667.81 638.88 681.10 639.06 694.00 639.00 C 706.90 638.94 720.08 639.05 733.00 639.00
C 734.17 638.58 736.17 638.13 737.00 637.00
C 740.16 627.05 729.02 618.01 723.75 610.25 C 718.49 602.48 712.94 593.33 706.75 586.25 C 700.57 579.16 696.89 568.18 690.00 562.00
C 686.36 559.68 672.94 560.05 673.00 563.00
C 681.03 577.72 690.71 591.40 699.00 606.00
C 655.09 601.97 614.62 584.68 572.00 576.00
C 545.06 570.52 509.07 565.10 482.98 574.98 C 456.88 584.85 440.86 598.51 427.00 622.00
C 421.58 616.44 418.47 608.80 413.00 603.00
C 409.78 599.78 403.79 596.30 402.00 592.00
C 325.17 537.26 235.50 598.53 155.00 607.00
C 162.90 591.20 173.55 576.67 182.00 561.00
C 176.13 562.27 167.73 558.45 163.00 563.00
M 340.00 598.00 
C 336.90 598.00 333.36 597.23 331.00 597.00
C 274.48 597.00 222.50 620.25 166.00 618.00
C 161.63 618.42 154.28 620.59 150.00 618.00
C 153.74 617.67 157.22 616.33 161.00 616.00
C 207.76 607.94 256.36 593.46 303.01 586.01 C 349.65 578.56 399.23 592.41 423.00 635.00
C 406.59 635.96 400.45 617.90 386.25 611.75 C 372.06 605.59 356.60 596.97 340.00 598.00
M 538.00 585.00 
C 563.87 585.52 589.23 593.82 614.02 598.98 C 638.82 604.13 663.03 610.44 688.00 615.00
C 692.98 615.91 698.05 616.83 703.00 618.00
C 698.87 619.98 692.53 619.15 688.00 618.00
C 668.91 616.32 649.21 615.97 630.99 612.01 C 612.77 608.05 595.98 605.94 577.93 602.07 C 559.88 598.20 537.58 597.18 519.00 597.00 C 500.42 596.82 485.18 603.85 469.31 610.31 C 453.43 616.76 447.54 635.13 430.00 635.00
C 446.97 604.94 480.40 586.48 514.00 585.00
C 521.56 584.09 530.51 584.10 538.00 585.00 Z"/>
</g>
<g fill="None" fill-opacity="0.0" stroke="#334884" stroke-opacity="1.00" stroke-width="0.3"><path d="
M 403.00 592.00 
C 405.78 595.98 409.90 599.37 413.00 603.00
C 418.47 608.80 421.58 616.44 427.00 622.00
C 440.86 598.51 456.88 584.85 482.98 574.98 C 509.07 565.10 545.06 570.52 572.00 576.00
C 522.67 556.08 453.58 568.22 428.00 619.00
C 419.38 610.84 412.95 599.60 403.00 592.00 Z"/>
</g>
<g fill="None" fill-opacity="0.0" stroke="#284399" stroke-opacity="1.00" stroke-width="0.3"><path d="
M 161.00 616.00 
C 159.59 615.77 163.68 617.91 166.00 618.00
C 222.50 620.25 274.48 597.00 331.00 597.00
C 334.10 597.00 337.64 597.77 340.00 598.00
C 356.60 596.97 372.06 605.59 386.25 611.75 C 400.45 617.90 406.59 635.96 423.00 635.00
C 399.23 592.41 349.65 578.56 303.01 586.01 C 256.36 593.46 207.76 607.94 161.00 616.00 Z"/>
</g>
<g fill="None" fill-opacity="0.0" stroke="#8292C2" stroke-opacity="1.00" stroke-width="0.3"><path d="
M 514.00 585.00 
C 521.98 584.84 530.02 584.84 538.00 585.00
C 530.51 584.10 521.56 584.09 514.00 585.00 Z"/>
</g>
<g fill="None" fill-opacity="0.0" stroke="#274297" stroke-opacity="1.00" stroke-width="0.3"><path d="
M 688.00 618.00 
C 687.55 617.29 688.36 615.77 688.00 615.00
C 663.03 610.44 638.82 604.13 614.02 598.98 C 589.23 593.82 563.87 585.52 538.00 585.00
C 530.02 584.84 521.98 584.84 514.00 585.00
C 480.40 586.48 446.97 604.94 430.00 635.00
C 447.54 635.13 453.43 616.76 469.31 610.31 C 485.18 603.85 500.42 596.82 519.00 597.00 C 537.58 597.18 559.88 598.20 577.93 602.07 C 595.98 605.94 612.77 608.05 630.99 612.01 C 649.21 615.97 668.91 616.32 688.00 618.00 Z"/>
</g>
<g fill="None" fill-opacity="0.0" stroke="#7789B0" stroke-opacity="1.00" stroke-width="0.3"><path d="
M 413.00 603.00 
C 409.90 599.37 405.78 595.98 403.00 592.00
C 403.00 592.00 402.36 592.22 402.00 592.00
C 403.79 596.30 409.78 599.78 413.00 603.00 Z"/>
</g>
<g fill="None" fill-opacity="0.0" stroke="#B7C8EE" stroke-opacity="1.00" stroke-width="0.3"><path d="
M 340.00 598.00 
C 337.64 597.77 334.10 597.00 331.00 597.00
C 333.36 597.23 336.90 598.00 340.00 598.00 Z"/>
</g>
<g fill="None" fill-opacity="0.0" stroke="#535E72" stroke-opacity="1.00" stroke-width="0.3"><path d="
M 688.00 618.00 
C 692.53 619.15 698.87 619.98 703.00 618.00
C 698.05 616.83 692.98 615.91 688.00 615.00
C 688.36 615.77 687.55 617.29 688.00 618.00 Z"/>
</g>
<g fill="None" fill-opacity="0.0" stroke="#636D76" stroke-opacity="1.00" stroke-width="0.3"><path d="
M 166.00 618.00 
C 163.68 617.91 159.59 615.77 161.00 616.00
C 157.22 616.33 153.74 617.67 150.00 618.00
C 154.28 620.59 161.63 618.42 166.00 618.00 Z"/>
</g>
<g fill="None" fill-opacity="0.0" stroke="#283E80" stroke-opacity="1.00" stroke-width="0.3"><path d="
M 733.00 639.00 
C 716.63 644.90 696.01 638.02 678.00 640.00 C 659.99 641.98 639.46 639.06 621.00 640.00 C 602.54 640.94 583.66 639.52 565.00 640.00 C 546.34 640.48 526.75 639.64 508.00 640.00
C 508.00 654.00 508.00 668.00 508.00 682.00
C 510.33 669.32 508.33 654.50 509.00 641.00
C 521.90 640.95 535.14 641.06 548.00 641.00 C 560.86 640.94 574.27 641.12 587.00 641.00 C 599.73 640.88 613.57 641.26 626.00 641.00 C 638.43 640.74 653.26 641.57 665.00 641.00 C 676.74 640.43 693.78 642.25 704.00 641.00 C 714.22 639.75 734.28 645.57 737.00 637.00
C 736.17 638.13 734.17 638.58 733.00 639.00 Z"/>
</g>
<g fill="None" fill-opacity="0.0" stroke="#283E7F" stroke-opacity="1.00" stroke-width="0.3"><path d="
M 405.00 658.00 
C 399.90 656.39 395.24 654.04 390.75 651.25 C 386.26 648.45 385.78 642.41 382.00 640.00
C 376.26 637.52 367.34 640.93 361.00 640.00 C 354.66 639.07 346.51 640.00 340.00 640.00
C 329.58 640.00 319.45 640.03 309.00 640.00 C 298.55 639.97 287.44 640.07 277.00 640.00 C 266.56 639.93 256.39 640.16 246.00 640.00 C 235.61 639.84 224.26 640.35 214.00 640.00 C 203.74 639.65 192.96 640.80 183.00 640.00 C 173.04 639.20 160.33 641.73 151.00 640.00 C 141.67 638.27 127.13 644.27 120.00 639.00
C 120.00 639.00 119.47 639.12 119.00 639.00
C 120.03 643.81 133.91 640.14 139.00 641.00 C 144.09 641.86 154.68 640.61 161.00 641.00 C 167.32 641.39 176.12 640.82 183.00 641.00 C 189.88 641.18 197.88 640.92 205.00 641.00 C 212.12 641.08 219.77 640.96 227.00 641.00 C 234.23 641.04 241.72 640.97 249.00 641.00 C 256.28 641.03 263.71 640.97 271.00 641.00 C 278.29 641.03 285.74 640.95 293.00 641.00 C 300.26 641.05 307.81 640.89 315.00 641.00 C 322.19 641.11 329.97 640.77 337.00 641.00 C 344.03 641.23 352.35 640.49 359.00 641.00 C 365.65 641.51 374.47 639.31 379.77 642.23 C 385.06 645.15 385.90 649.46 390.92 653.08 C 395.95 656.70 399.93 657.52 405.00 658.00 Z"/>
</g>
<g fill="None" fill-opacity="0.0" stroke="#B9C7EB" stroke-opacity="1.00" stroke-width="0.3"><path d="
M 340.00 640.00 
C 339.96 640.00 340.00 639.00 340.00 639.00
C 266.67 639.00 193.33 639.00 120.00 639.00
C 127.13 644.27 141.67 638.27 151.00 640.00 C 160.33 641.73 173.04 639.20 183.00 640.00 C 192.96 640.80 203.74 639.65 214.00 640.00 C 224.26 640.35 235.61 639.84 246.00 640.00 C 256.39 640.16 266.56 639.93 277.00 640.00 C 287.44 640.07 298.55 639.97 309.00 640.00 C 319.45 640.03 329.58 640.00 340.00 640.00 Z"/>
</g>
<g fill="None" fill-opacity="0.0" stroke="#929FC2" stroke-opacity="1.00" stroke-width="0.3"><path d="
M 340.00 640.00 
C 346.51 640.00 354.66 639.07 361.00 640.00 C 367.34 640.93 376.26 637.52 382.00 640.00
C 376.89 636.74 367.40 639.72 361.00 639.00 C 354.60 638.28 346.55 639.00 340.00 639.00
C 340.00 639.00 339.96 640.00 340.00 640.00 Z"/>
</g>
<g fill="None" fill-opacity="0.0" stroke="#BBC9ED" stroke-opacity="1.00" stroke-width="0.3"><path d="
M 502.00 680.00 
C 503.38 681.98 505.36 684.84 508.00 685.00
C 508.30 684.13 507.63 682.84 508.00 682.00
C 508.00 668.00 508.00 654.00 508.00 640.00
C 526.75 639.64 546.34 640.48 565.00 640.00 C 583.66 639.52 602.54 640.94 621.00 640.00 C 639.46 639.06 659.99 641.98 678.00 640.00 C 696.01 638.02 716.63 644.90 733.00 639.00
C 720.08 639.05 706.90 638.94 694.00 639.00 C 681.10 639.06 667.81 638.88 655.00 639.00 C 642.19 639.12 628.59 638.75 616.00 639.00 C 603.41 639.25 590.17 638.44 578.00 639.00 C 565.83 639.56 550.36 637.79 539.00 639.00 C 527.65 640.21 508.02 633.33 507.00 646.00 C 505.98 658.67 507.76 671.33 507.00 684.00
C 505.23 682.93 503.71 681.27 502.00 680.00 Z"/>
</g>
<g fill="None" fill-opacity="0.0" stroke="#445472" stroke-opacity="1.00" stroke-width="0.3"><path d="
M 463.00 650.00 
C 465.38 648.96 466.59 646.11 469.00 645.00
C 469.53 646.81 470.79 649.52 471.00 651.00
C 471.00 647.33 471.00 643.67 471.00 640.00
C 468.26 642.89 466.25 647.17 463.00 650.00 Z"/>
</g>
<g fill="None" fill-opacity="0.0" stroke="#8EA2D0" stroke-opacity="1.00" stroke-width="0.3"><path d="
M 435.00 660.00 
C 428.70 660.13 422.29 660.24 416.00 660.00
C 421.99 660.86 428.96 660.73 435.00 660.00 Z"/>
</g>
<g fill="None" fill-opacity="0.0" stroke="#000000" stroke-opacity="0.00" stroke-width="0.3"><path d="
M 0.00 856.00 
L 157.00 856.00
C 77.64 848.79 7.20 778.46 0.00 699.00
L 0.00 856.00 Z"/>
</g>
<g fill="None" fill-opacity="0.0" stroke="#000000" stroke-opacity="0.00" stroke-width="0.3"><path d="
M 699.00 855.00 
C 699.04 855.00 699.00 856.00 699.00 856.00
L 856.00 856.00
L 856.00 699.00
C 851.11 736.95 833.76 777.70 804.75 804.75 C 775.75 831.80 739.18 855.00 699.00 855.00 Z"/>
</g>
<g fill="None" fill-opacity="0.0" stroke="#2044AE" stroke-opacity="0.44" stroke-width="0.3"><path d="
M 689.00 856.00 
L 699.00 856.00
C 699.00 856.00 699.04 855.00 699.00 855.00
C 695.82 855.00 691.43 854.26 689.00 856.00 Z"/>
</g>
<g fill="#000000" fill-opacity="0.00" stroke="None">
<path d="
M 0.00 157.00 
C 7.28 77.30 78.13 6.62 158.00 0.00
L 0.00 0.00
L 0.00 157.00 Z"/>
</g>
<g fill="#1D3FAC" fill-opacity="1.00" stroke="None">
<path d="
M 0.00 157.00 
L 0.00 699.00
C 7.20 778.46 77.64 848.79 157.00 856.00
L 689.00 856.00
C 691.43 854.26 695.82 855.00 699.00 855.00
C 739.18 855.00 775.75 831.80 804.75 804.75 C 833.76 777.70 851.11 736.95 856.00 699.00
L 856.00 157.00
C 848.78 77.23 777.80 6.60 698.00 0.00
L 691.00 0.00
C 688.39 1.56 682.54 1.72 680.00 0.00
L 176.00 0.00
C 174.04 1.52 168.89 1.72 167.00 0.00
L 158.00 0.00
C 78.13 6.62 7.28 77.30 0.00 157.00
M 676.00 542.00 
C 675.60 544.45 670.30 542.22 668.00 542.00
C 654.17 542.00 640.17 539.18 627.00 537.00 C 613.82 534.83 602.77 530.66 589.78 528.22 C 576.78 525.79 564.26 522.68 551.00 521.00 C 537.74 519.32 521.52 517.01 507.98 519.98 C 494.43 522.95 492.21 507.63 486.23 497.77 C 480.25 487.91 476.61 477.19 471.22 466.78 C 465.84 456.36 462.26 445.37 457.68 434.32 C 453.10 423.28 449.60 411.72 446.02 399.98 C 442.44 388.23 438.90 376.28 436.02 363.98 C 433.15 351.67 430.02 337.68 428.00 325.00
C 427.69 324.76 426.25 324.75 426.00 325.00
C 416.10 394.28 388.40 459.97 355.00 521.00
C 296.77 511.67 243.91 539.48 187.00 542.00
C 184.60 542.23 178.33 544.56 178.00 542.00
C 177.36 537.05 186.29 530.37 188.30 525.30 C 190.32 520.24 196.18 514.34 198.92 508.92 C 201.67 503.51 207.44 497.95 210.25 492.25 C 213.07 486.56 217.83 481.77 221.25 476.25 C 224.68 470.74 228.34 464.57 232.25 459.25 C 236.17 453.94 238.92 448.18 242.77 442.77 C 246.62 437.36 250.14 431.36 253.92 425.92 C 257.70 420.48 260.60 414.74 264.31 409.30 C 268.01 403.87 271.84 398.92 275.30 393.30 C 278.77 387.69 282.59 381.81 286.30 376.30 C 290.01 370.80 293.12 365.38 296.92 359.92 C 300.72 354.46 304.49 348.55 307.92 342.92 C 311.35 337.29 315.44 332.44 318.77 326.77 C 322.10 321.10 326.21 315.33 329.77 309.77 C 333.33 304.21 336.76 298.85 340.30 293.30 C 343.84 287.75 347.74 282.87 351.25 277.25 C 354.77 271.64 358.36 265.51 361.92 259.92 C 365.49 254.34 369.10 249.27 372.77 243.77 C 376.44 238.27 380.28 232.40 383.77 226.77 C 387.26 221.15 390.50 215.75 394.30 210.30 C 398.11 204.86 401.85 198.93 405.30 193.30 C 408.76 187.68 412.44 182.44 415.92 176.92 C 419.41 171.41 422.86 164.34 428.00 161.00
C 509.40 288.76 593.48 414.94 676.00 542.00
M 182.00 561.00 
C 173.55 576.67 162.90 591.20 155.00 607.00
C 235.50 598.53 325.17 537.26 402.00 592.00
C 402.36 592.22 403.00 592.00 403.00 592.00
C 412.95 599.60 419.38 610.84 428.00 619.00
C 453.58 568.22 522.67 556.08 572.00 576.00
C 614.62 584.68 655.09 601.97 699.00 606.00
C 690.71 591.40 681.03 577.72 673.00 563.00
C 672.65 562.16 670.02 561.73 671.00 560.00
C 677.05 561.15 685.53 557.59 690.00 562.00
C 696.89 568.18 700.57 579.16 706.75 586.25 C 712.94 593.33 718.49 602.48 723.75 610.25 C 729.02 618.01 740.16 627.05 737.00 637.00
C 734.28 645.57 714.22 639.75 704.00 641.00 C 693.78 642.25 676.74 640.43 665.00 641.00 C 653.26 641.57 638.43 640.74 626.00 641.00 C 613.57 641.26 599.73 640.88 587.00 641.00 C 574.27 641.12 560.86 640.94 548.00 641.00 C 535.14 641.06 521.90 640.95 509.00 641.00
C 508.33 654.50 510.33 669.32 508.00 682.00
C 507.63 682.84 508.30 684.13 508.00 685.00
C 505.36 684.84 503.38 681.98 502.00 680.00
C 497.75 676.84 493.00 673.60 490.00 669.00
C 483.60 674.69 477.52 680.60 471.00 686.00
C 471.00 674.33 471.00 662.67 471.00 651.00
C 470.79 649.52 469.53 646.81 469.00 645.00
C 466.59 646.11 465.38 648.96 463.00 650.00
C 454.52 656.30 445.76 659.78 435.00 660.00
C 428.96 660.73 421.99 660.86 416.00 660.00
C 411.83 659.84 408.83 659.21 405.00 658.00
C 399.93 657.52 395.95 656.70 390.92 653.08 C 385.90 649.46 385.06 645.15 379.77 642.23 C 374.47 639.31 365.65 641.51 359.00 641.00 C 352.35 640.49 344.03 641.23 337.00 641.00 C 329.97 640.77 322.19 641.11 315.00 641.00 C 307.81 640.89 300.26 641.05 293.00 641.00 C 285.74 640.95 278.29 641.03 271.00 641.00 C 263.71 640.97 256.28 641.03 249.00 641.00 C 241.72 640.97 234.23 641.04 227.00 641.00 C 219.77 640.96 212.12 641.08 205.00 641.00 C 197.88 640.92 189.88 641.18 183.00 641.00 C 176.12 640.82 167.32 641.39 161.00 641.00 C 154.68 640.61 144.09 641.86 139.00 641.00 C 133.91 640.14 120.03 643.81 119.00 639.00
C 110.80 636.85 119.67 622.86 123.92 618.92 C 128.16 614.98 132.90 605.29 137.30 600.30 C 141.70 595.31 145.53 587.60 150.25 582.25 C 154.98 576.91 158.63 568.64 163.00 563.00
C 167.04 557.78 176.69 559.87 182.00 561.00 Z"/>
</g>
<g fill="#1C40AE" fill-opacity="0.81" stroke="None">
<path d="
M 176.00 0.00 
L 167.00 0.00
C 168.89 1.72 174.04 1.52 176.00 0.00 Z"/>
</g>
<g fill="#1B3EAC" fill-opacity="0.78" stroke="None">
<path d="
M 691.00 0.00 
L 680.00 0.00
C 682.54 1.72 688.39 1.56 691.00 0.00 Z"/>
</g>
<g fill="#000000" fill-opacity="0.00" stroke="None">
<path d="
M 856.00 157.00 
L 856.00 0.00
L 698.00 0.00
C 777.80 6.60 848.78 77.23 856.00 157.00 Z"/>
</g>
<g fill="#FDFDFE" fill-opacity="1.00" stroke="None">
<path d="
M 178.00 542.00 
C 180.41 541.21 184.44 542.00 187.00 542.00
C 243.91 539.48 296.77 511.67 355.00 521.00
C 388.40 459.97 416.10 394.28 426.00 325.00
C 426.32 322.78 425.01 319.40 427.00 318.00
C 427.56 320.24 428.38 322.48 428.00 325.00
C 430.02 337.68 433.15 351.67 436.02 363.98 C 438.90 376.28 442.44 388.23 446.02 399.98 C 449.60 411.72 453.10 423.28 457.68 434.32 C 462.26 445.37 465.84 456.36 471.22 466.78 C 476.61 477.19 480.25 487.91 486.23 497.77 C 492.21 507.63 494.43 522.95 507.98 519.98 C 521.52 517.01 537.74 519.32 551.00 521.00 C 564.26 522.68 576.78 525.79 589.78 528.22 C 602.77 530.66 613.82 534.83 627.00 537.00 C 640.17 539.18 654.17 542.00 668.00 542.00
C 670.27 542.00 673.86 541.30 676.00 542.00
C 593.48 414.94 509.40 288.76 428.00 161.00
C 422.86 164.34 419.41 171.41 415.92 176.92 C 412.44 182.44 408.76 187.68 405.30 193.30 C 401.85 198.93 398.11 204.86 394.30 210.30 C 390.50 215.75 387.26 221.15 383.77 226.77 C 380.28 232.40 376.44 238.27 372.77 243.77 C 369.10 249.27 365.49 254.34 361.92 259.92 C 358.36 265.51 354.77 271.64 351.25 277.25 C 347.74 282.87 343.84 287.75 340.30 293.30 C 336.76 298.85 333.33 304.21 329.77 309.77 C 326.21 315.33 322.10 321.10 318.77 326.77 C 315.44 332.44 311.35 337.29 307.92 342.92 C 304.49 348.55 300.72 354.46 296.92 359.92 C 293.12 365.38 290.01 370.80 286.30 376.30 C 282.59 381.81 278.77 387.69 275.30 393.30 C 271.84 398.92 268.01 403.87 264.31 409.30 C 260.60 414.74 257.70 420.48 253.92 425.92 C 250.14 431.36 246.62 437.36 242.77 442.77 C 238.92 448.18 236.17 453.94 232.25 459.25 C 228.34 464.57 224.68 470.74 221.25 476.25 C 217.83 481.77 213.07 486.56 210.25 492.25 C 207.44 497.95 201.67 503.51 198.92 508.92 C 196.18 514.34 190.32 520.24 188.30 525.30 C 186.29 530.37 177.36 537.05 178.00 542.00 Z"/>
</g>
<g fill="#52566B" fill-opacity="1.00" stroke="None">
<path d="
M 426.00 325.00 
C 426.25 324.75 427.69 324.76 428.00 325.00
C 428.38 322.48 427.56 320.24 427.00 318.00
C 425.01 319.40 426.32 322.78 426.00 325.00 Z"/>
</g>
<g fill="#94A4DD" fill-opacity="1.00" stroke="None">
<path d="
M 187.00 542.00 
C 184.44 542.00 180.41 541.21 178.00 542.00
C 178.33 544.56 184.60 542.23 187.00 542.00 Z"/>
</g>
<g fill="#97A8E3" fill-opacity="1.00" stroke="None">
<path d="
M 676.00 542.00 
C 673.86 541.30 670.27 542.00 668.00 542.00
C 670.30 542.22 675.60 544.45 676.00 542.00 Z"/>
</g>
<g fill="#667A9F" fill-opacity="1.00" stroke="None">
<path d="
M 163.00 563.00 
C 167.73 558.45 176.13 562.27 182.00 561.00
C 176.69 559.87 167.04 557.78 163.00 563.00 Z"/>
</g>
<g fill="#6980AA" fill-opacity="1.00" stroke="None">
<path d="
M 673.00 563.00 
C 672.94 560.05 686.36 559.68 690.00 562.00
C 685.53 557.59 677.05 561.15 671.00 560.00
C 670.02 561.73 672.65 562.16 673.00 563.00 Z"/>
</g>
<g fill="#F8FBFC" fill-opacity="1.00" stroke="None">
<path d="
M 163.00 563.00 
C 158.63 568.64 154.98 576.91 150.25 582.25 C 145.53 587.60 141.70 595.31 137.30 600.30 C 132.90 605.29 128.16 614.98 123.92 618.92 C 119.67 622.86 110.80 636.85 119.00 639.00
C 119.47 639.12 120.00 639.00 120.00 639.00
C 193.33 639.00 266.67 639.00 340.00 639.00
C 346.55 639.00 354.60 638.28 361.00 639.00 C 367.40 639.72 376.89 636.74 382.00 640.00
C 385.78 642.41 386.26 648.45 390.75 651.25 C 395.24 654.04 399.90 656.39 405.00 658.00
C 408.83 659.21 411.83 659.84 416.00 660.00
C 422.29 660.24 428.70 660.13 435.00 660.00
C 445.76 659.78 454.52 656.30 463.00 650.00
C 466.25 647.17 468.26 642.89 471.00 640.00
C 471.00 643.67 471.00 647.33 471.00 651.00
C 471.00 662.67 471.00 674.33 471.00 686.00
C 477.52 680.60 483.60 674.69 490.00 669.00
C 493.00 673.60 497.75 676.84 502.00 680.00
C 503.71 681.27 505.23 682.93 507.00 684.00
C 507.76 671.33 505.98 658.67 507.00 646.00 C 508.02 633.33 527.65 640.21 539.00 639.00 C 550.36 637.79 565.83 639.56 578.00 639.00 C 590.17 638.44 603.41 639.25 616.00 639.00 C 628.59 638.75 642.19 639.12 655.00 639.00 C 667.81 638.88 681.10 639.06 694.00 639.00 C 706.90 638.94 720.08 639.05 733.00 639.00
C 734.17 638.58 736.17 638.13 737.00 637.00
C 740.16 627.05 729.02 618.01 723.75 610.25 C 718.49 602.48 712.94 593.33 706.75 586.25 C 700.57 579.16 696.89 568.18 690.00 562.00
C 686.36 559.68 672.94 560.05 673.00 563.00
C 681.03 577.72 690.71 591.40 699.00 606.00
C 655.09 601.97 614.62 584.68 572.00 576.00
C 545.06 570.52 509.07 565.10 482.98 574.98 C 456.88 584.85 440.86 598.51 427.00 622.00
C 421.58 616.44 418.47 608.80 413.00 603.00
C 409.78 599.78 403.79 596.30 402.00 592.00
C 325.17 537.26 235.50 598.53 155.00 607.00
C 162.90 591.20 173.55 576.67 182.00 561.00
C 176.13 562.27 167.73 558.45 163.00 563.00
M 340.00 598.00 
C 336.90 598.00 333.36 597.23 331.00 597.00
C 274.48 597.00 222.50 620.25 166.00 618.00
C 161.63 618.42 154.28 620.59 150.00 618.00
C 153.74 617.67 157.22 616.33 161.00 616.00
C 207.76 607.94 256.36 593.46 303.01 586.01 C 349.65 578.56 399.23 592.41 423.00 635.00
C 406.59 635.96 400.45 617.90 386.25 611.75 C 372.06 605.59 356.60 596.97 340.00 598.00
M 538.00 585.00 
C 563.87 585.52 589.23 593.82 614.02 598.98 C 638.82 604.13 663.03 610.44 688.00 615.00
C 692.98 615.91 698.05 616.83 703.00 618.00
C 698.87 619.98 692.53 619.15 688.00 618.00
C 668.91 616.32 649.21 615.97 630.99 612.01 C 612.77 608.05 595.98 605.94 577.93 602.07 C 559.88 598.20 537.58 597.18 519.00 597.00 C 500.42 596.82 485.18 603.85 469.31 610.31 C 453.43 616.76 447.54 635.13 430.00 635.00
C 446.97 604.94 480.40 586.48 514.00 585.00
C 521.56 584.09 530.51 584.10 538.00 585.00 Z"/>
</g>
<g fill="#334884" fill-opacity="1.00" stroke="None">
<path d="
M 403.00 592.00 
C 405.78 595.98 409.90 599.37 413.00 603.00
C 418.47 608.80 421.58 616.44 427.00 622.00
C 440.86 598.51 456.88 584.85 482.98 574.98 C 509.07 565.10 545.06 570.52 572.00 576.00
C 522.67 556.08 453.58 568.22 428.00 619.00
C 419.38 610.84 412.95 599.60 403.00 592.00 Z"/>
</g>
<g fill="#284399" fill-opacity="1.00" stroke="None">
<path d="
M 161.00 616.00 
C 159.59 615.77 163.68 617.91 166.00 618.00
C 222.50 620.25 274.48 597.00 331.00 597.00
C 334.10 597.00 337.64 597.77 340.00 598.00
C 356.60 596.97 372.06 605.59 386.25 611.75 C 400.45 617.90 406.59 635.96 423.00 635.00
C 399.23 592.41 349.65 578.56 303.01 586.01 C 256.36 593.46 207.76 607.94 161.00 616.00 Z"/>
</g>
<g fill="#8292C2" fill-opacity="1.00" stroke="None">
<path d="
M 514.00 585.00 
C 521.98 584.84 530.02 584.84 538.00 585.00
C 530.51 584.10 521.56 584.09 514.00 585.00 Z"/>
</g>
<g fill="#274297" fill-opacity="1.00" stroke="None">
<path d="
M 688.00 618.00 
C 687.55 617.29 688.36 615.77 688.00 615.00
C 663.03 610.44 638.82 604.13 614.02 598.98 C 589.23 593.82 563.87 585.52 538.00 585.00
C 530.02 584.84 521.98 584.84 514.00 585.00
C 480.40 586.48 446.97 604.94 430.00 635.00
C 447.54 635.13 453.43 616.76 469.31 610.31 C 485.18 603.85 500.42 596.82 519.00 597.00 C 537.58 597.18 559.88 598.20 577.93 602.07 C 595.98 605.94 612.77 608.05 630.99 612.01 C 649.21 615.97 668.91 616.32 688.00 618.00 Z"/>
</g>
<g fill="#7789B0" fill-opacity="1.00" stroke="None">
<path d="
M 413.00 603.00 
C 409.90 599.37 405.78 595.98 403.00 592.00
C 403.00 592.00 402.36 592.22 402.00 592.00
C 403.79 596.30 409.78 599.78 413.00 603.00 Z"/>
</g>
<g fill="#B7C8EE" fill-opacity="1.00" stroke="None">
<path d="
M 340.00 598.00 
C 337.64 597.77 334.10 597.00 331.00 597.00
C 333.36 597.23 336.90 598.00 340.00 598.00 Z"/>
</g>
<g fill="#535E72" fill-opacity="1.00" stroke="None">
<path d="
M 688.00 618.00 
C 692.53 619.15 698.87 619.98 703.00 618.00
C 698.05 616.83 692.98 615.91 688.00 615.00
C 688.36 615.77 687.55 617.29 688.00 618.00 Z"/>
</g>
<g fill="#636D76" fill-opacity="1.00" stroke="None">
<path d="
M 166.00 618.00 
C 163.68 617.91 159.59 615.77 161.00 616.00
C 157.22 616.33 153.74 617.67 150.00 618.00
C 154.28 620.59 161.63 618.42 166.00 618.00 Z"/>
</g>
<g fill="#283E80" fill-opacity="1.00" stroke="None">
<path d="
M 733.00 639.00 
C 716.63 644.90 696.01 638.02 678.00 640.00 C 659.99 641.98 639.46 639.06 621.00 640.00 C 602.54 640.94 583.66 639.52 565.00 640.00 C 546.34 640.48 526.75 639.64 508.00 640.00
C 508.00 654.00 508.00 668.00 508.00 682.00
C 510.33 669.32 508.33 654.50 509.00 641.00
C 521.90 640.95 535.14 641.06 548.00 641.00 C 560.86 640.94 574.27 641.12 587.00 641.00 C 599.73 640.88 613.57 641.26 626.00 641.00 C 638.43 640.74 653.26 641.57 665.00 641.00 C 676.74 640.43 693.78 642.25 704.00 641.00 C 714.22 639.75 734.28 645.57 737.00 637.00
C 736.17 638.13 734.17 638.58 733.00 639.00 Z"/>
</g>
<g fill="#283E7F" fill-opacity="1.00" stroke="None">
<path d="
M 405.00 658.00 
C 399.90 656.39 395.24 654.04 390.75 651.25 C 386.26 648.45 385.78 642.41 382.00 640.00
C 376.26 637.52 367.34 640.93 361.00 640.00 C 354.66 639.07 346.51 640.00 340.00 640.00
C 329.58 640.00 319.45 640.03 309.00 640.00 C 298.55 639.97 287.44 640.07 277.00 640.00 C 266.56 639.93 256.39 640.16 246.00 640.00 C 235.61 639.84 224.26 640.35 214.00 640.00 C 203.74 639.65 192.96 640.80 183.00 640.00 C 173.04 639.20 160.33 641.73 151.00 640.00 C 141.67 638.27 127.13 644.27 120.00 639.00
C 120.00 639.00 119.47 639.12 119.00 639.00
C 120.03 643.81 133.91 640.14 139.00 641.00 C 144.09 641.86 154.68 640.61 161.00 641.00 C 167.32 641.39 176.12 640.82 183.00 641.00 C 189.88 641.18 197.88 640.92 205.00 641.00 C 212.12 641.08 219.77 640.96 227.00 641.00 C 234.23 641.04 241.72 640.97 249.00 641.00 C 256.28 641.03 263.71 640.97 271.00 641.00 C 278.29 641.03 285.74 640.95 293.00 641.00 C 300.26 641.05 307.81 640.89 315.00 641.00 C 322.19 641.11 329.97 640.77 337.00 641.00 C 344.03 641.23 352.35 640.49 359.00 641.00 C 365.65 641.51 374.47 639.31 379.77 642.23 C 385.06 645.15 385.90 649.46 390.92 653.08 C 395.95 656.70 399.93 657.52 405.00 658.00 Z"/>
</g>
<g fill="#B9C7EB" fill-opacity="1.00" stroke="None">
<path d="
M 340.00 640.00 
C 339.96 640.00 340.00 639.00 340.00 639.00
C 266.67 639.00 193.33 639.00 120.00 639.00
C 127.13 644.27 141.67 638.27 151.00 640.00 C 160.33 641.73 173.04 639.20 183.00 640.00 C 192.96 640.80 203.74 639.65 214.00 640.00 C 224.26 640.35 235.61 639.84 246.00 640.00 C 256.39 640.16 266.56 639.93 277.00 640.00 C 287.44 640.07 298.55 639.97 309.00 640.00 C 319.45 640.03 329.58 640.00 340.00 640.00 Z"/>
</g>
<g fill="#929FC2" fill-opacity="1.00" stroke="None">
<path d="
M 340.00 640.00 
C 346.51 640.00 354.66 639.07 361.00 640.00 C 367.34 640.93 376.26 637.52 382.00 640.00
C 376.89 636.74 367.40 639.72 361.00 639.00 C 354.60 638.28 346.55 639.00 340.00 639.00
C 340.00 639.00 339.96 640.00 340.00 640.00 Z"/>
</g>
<g fill="#BBC9ED" fill-opacity="1.00" stroke="None">
<path d="
M 502.00 680.00 
C 503.38 681.98 505.36 684.84 508.00 685.00
C 508.30 684.13 507.63 682.84 508.00 682.00
C 508.00 668.00 508.00 654.00 508.00 640.00
C 526.75 639.64 546.34 640.48 565.00 640.00 C 583.66 639.52 602.54 640.94 621.00 640.00 C 639.46 639.06 659.99 641.98 678.00 640.00 C 696.01 638.02 716.63 644.90 733.00 639.00
C 720.08 639.05 706.90 638.94 694.00 639.00 C 681.10 639.06 667.81 638.88 655.00 639.00 C 642.19 639.12 628.59 638.75 616.00 639.00 C 603.41 639.25 590.17 638.44 578.00 639.00 C 565.83 639.56 550.36 637.79 539.00 639.00 C 527.65 640.21 508.02 633.33 507.00 646.00 C 505.98 658.67 507.76 671.33 507.00 684.00
C 505.23 682.93 503.71 681.27 502.00 680.00 Z"/>
</g>
<g fill="#445472" fill-opacity="1.00" stroke="None">
<path d="
M 463.00 650.00 
C 465.38 648.96 466.59 646.11 469.00 645.00
C 469.53 646.81 470.79 649.52 471.00 651.00
C 471.00 647.33 471.00 643.67 471.00 640.00
C 468.26 642.89 466.25 647.17 463.00 650.00 Z"/>
</g>
<g fill="#8EA2D0" fill-opacity="1.00" stroke="None">
<path d="
M 435.00 660.00 
C 428.70 660.13 422.29 660.24 416.00 660.00
C 421.99 660.86 428.96 660.73 435.00 660.00 Z"/>
</g>
<g fill="#000000" fill-opacity="0.00" stroke="None">
<path d="
M 0.00 856.00 
L 157.00 856.00
C 77.64 848.79 7.20 778.46 0.00 699.00
L 0.00 856.00 Z"/>
</g>
<g fill="#000000" fill-opacity="0.00" stroke="None">
<path d="
M 699.00 855.00 
C 699.04 855.00 699.00 856.00 699.00 856.00
L 856.00 856.00
L 856.00 699.00
C 851.11 736.95 833.76 777.70 804.75 804.75 C 775.75 831.80 739.18 855.00 699.00 855.00 Z"/>
</g>
<g fill="#2044AE" fill-opacity="0.44" stroke="None">
<path d="
M 689.00 856.00 
L 699.00 856.00
C 699.00 856.00 699.04 855.00 699.00 855.00
C 695.82 855.00 691.43 854.26 689.00 856.00 Z"/>
</g>
</svg>